<svg width="478" height="512" viewBox="0 0 478 512" fill="none" xmlns="http://www.w3.org/2000/svg">
<path d="M238.25 -0.25C239.005 -0.250675 239.761 -0.251349 240.539 -0.252045C252.906 -0.234543 264.866 0.432186 277 3C277.836 3.17692 278.673 3.35385 279.534 3.53613C304.989 9.10834 329.674 18.8563 351 34C352.53 35.0751 352.53 35.0751 354.09 36.1719C360.542 40.8553 366.418 45.9642 372.211 51.4219C374.161 53.2243 376.099 54.9283 378.148 56.6055C381.892 59.7487 384.861 63.2701 388 67C389.147 68.3148 389.147 68.3148 390.316 69.6562C418.973 103.021 436.488 147.463 436.063 191.625C436.058 192.534 436.054 193.443 436.049 194.379C436.037 196.586 436.021 198.793 436 201C436.892 201.277 437.784 201.554 438.703 201.84C453.716 207.123 464.784 219.235 471.75 233.188C477.463 246.945 477.437 260.926 477.363 275.57C477.363 277.625 477.363 279.68 477.365 281.735C477.365 286.016 477.354 290.297 477.336 294.579C477.313 300.033 477.313 305.487 477.32 310.941C477.323 315.176 477.316 319.411 477.307 323.646C477.303 325.656 477.302 327.666 477.303 329.676C477.306 351.559 475.196 371.398 459.438 388.125C448.03 398.987 434.68 404.937 419 406C419.031 407.013 419.062 408.026 419.094 409.07C418.694 425.827 409.464 443.363 399 456C398.313 456.838 397.626 457.676 396.918 458.539C380.474 477.679 358.929 488.745 334 492C329.886 492.238 325.792 492.236 321.672 492.195C320.557 492.192 319.442 492.19 318.293 492.187C314.779 492.176 311.264 492.151 307.75 492.125C305.348 492.115 302.945 492.106 300.543 492.098C294.695 492.076 288.848 492.042 283 492C283.046 493.025 283.093 494.05 283.141 495.105C283.178 496.466 283.215 497.827 283.25 499.188C283.284 499.861 283.317 500.535 283.352 501.229C283.419 504.66 283.155 506.746 281.356 509.695C278.381 512.605 277.03 512.632 272.921 512.647C271.078 512.671 271.078 512.671 269.198 512.695C267.859 512.686 266.519 512.676 265.18 512.664C263.797 512.667 262.414 512.672 261.031 512.679C258.131 512.686 255.231 512.675 252.331 512.652C248.639 512.624 244.949 512.64 241.257 512.67C238.398 512.688 235.539 512.682 232.681 512.669C230.666 512.664 228.651 512.679 226.636 512.695C217.322 512.577 210.643 510.792 203.379 504.859C197.142 497.616 194.361 491.114 194.719 481.477C195.677 473.042 199.379 466.101 205.734 460.461C211.128 456.38 216.412 454.762 223.201 454.694C225.008 454.67 225.008 454.67 226.852 454.645C228.783 454.637 228.783 454.637 230.754 454.629C232.101 454.62 233.448 454.611 234.795 454.602C237.61 454.585 240.425 454.577 243.24 454.574C246.841 454.569 250.44 454.531 254.04 454.486C256.819 454.456 259.597 454.449 262.376 454.448C264.347 454.441 266.317 454.412 268.287 454.382C277.067 454.427 277.067 454.427 281.332 457.047C283.411 460.728 283.568 463.709 283.313 467.812C283.29 468.505 283.267 469.198 283.244 469.912C283.186 471.609 283.096 473.305 283 475C289.828 474.958 296.656 474.885 303.483 474.792C305.799 474.765 308.115 474.743 310.431 474.729C336.745 474.558 358.689 470.028 379 452C390.367 439.879 397.057 426.07 401 410C401.333 408.667 401.666 407.333 402 406C400.749 406.01 399.497 406.021 398.208 406.032C393.564 406.068 388.92 406.091 384.275 406.11C382.266 406.12 380.256 406.134 378.246 406.151C375.357 406.175 372.468 406.186 369.578 406.195C368.68 406.206 367.782 406.216 366.857 406.227C365.596 406.227 365.596 406.227 364.31 406.227C363.572 406.231 362.835 406.236 362.076 406.241C359.593 405.953 358.083 405.387 356 404C353.441 400.317 353.715 396.384 353.733 392.074C353.728 391.269 353.724 390.465 353.719 389.636C353.706 386.938 353.708 384.24 353.71 381.541C353.704 379.608 353.697 377.675 353.689 375.741C353.671 370.487 353.667 365.233 353.666 359.979C353.664 355.595 353.656 351.211 353.649 346.828C353.633 336.487 353.628 326.146 353.629 315.805C353.631 305.132 353.61 294.459 353.578 283.785C353.552 274.626 353.541 265.467 353.542 256.307C353.543 250.835 353.537 245.362 353.516 239.89C353.497 234.744 353.496 229.599 353.511 224.453C353.513 222.564 353.508 220.675 353.496 218.785C353.481 216.207 353.49 213.631 353.506 211.053C353.495 210.304 353.485 209.555 353.474 208.783C353.522 205.182 353.914 203.138 355.843 200.059C359.344 196.717 362.342 196.88 366.98 196.902C368.144 196.906 369.307 196.909 370.506 196.912C371.721 196.92 372.936 196.929 374.188 196.938C375.414 196.942 376.641 196.947 377.904 196.951C380.936 196.963 383.968 196.979 387 197C385.584 181.276 383.906 166.053 379 151C378.774 150.304 378.549 149.607 378.316 148.89C365.967 111.712 338.838 82.5111 304.431 64.5034C275.251 49.9252 237.812 44.5286 206 53C205.245 53.188 204.489 53.3761 203.711 53.5698C185.557 58.1558 168.018 65.7077 153 77C152.169 77.6226 151.337 78.2452 150.481 78.8867C147.931 80.8658 145.459 82.9097 143 85C142.054 85.7992 141.108 86.5984 140.133 87.4219C107.5 115.714 94.5937 155.24 91 197C92.1422 196.976 92.1422 196.976 93.3074 196.952C96.7674 196.89 100.227 196.851 103.688 196.812C104.886 196.787 106.084 196.762 107.318 196.736C109.054 196.722 109.054 196.722 110.824 196.707C112.419 196.683 112.419 196.683 114.046 196.659C117.452 197.052 119.266 197.962 122 200C124.471 203.707 124.279 206.525 124.254 210.813C124.257 211.617 124.26 212.421 124.263 213.25C124.271 215.954 124.265 218.657 124.259 221.361C124.262 223.296 124.265 225.231 124.269 227.166C124.279 232.428 124.275 237.69 124.269 242.952C124.264 248.453 124.268 253.954 124.271 259.455C124.275 268.695 124.27 277.934 124.261 287.174C124.25 297.863 124.253 308.552 124.264 319.24C124.274 328.409 124.275 337.578 124.27 346.746C124.266 352.226 124.266 357.705 124.273 363.185C124.278 368.337 124.274 373.489 124.263 378.641C124.26 380.534 124.261 382.428 124.265 384.321C124.271 386.901 124.264 389.48 124.254 392.06C124.258 392.813 124.263 393.566 124.268 394.342C124.24 398.035 124.14 400.908 122 404C118.807 406.239 115.937 406.263 112.108 406.291C110.919 406.303 109.73 406.316 108.504 406.329C107.219 406.331 105.934 406.334 104.609 406.336C103.263 406.342 101.917 406.349 100.571 406.356C97.7435 406.368 94.9158 406.372 92.0879 406.371C89.2172 406.37 86.3472 406.384 83.4766 406.412C59.9675 406.633 38.1649 406.309 20.0926 389.172C7.74527 377.012 1.18071 361.894 0.859601 344.532C0.84772 342.891 0.841105 341.25 0.83891 339.609C0.833946 338.705 0.828981 337.802 0.823865 336.871C0.809347 333.902 0.802458 330.934 0.796918 327.965C0.794091 326.943 0.791271 325.921 0.788358 324.868C0.773405 319.456 0.764144 314.044 0.759809 308.632C0.754339 303.08 0.730336 297.529 0.701841 291.977C0.683088 287.674 0.678006 283.372 0.676481 279.069C0.67348 277.024 0.665543 274.98 0.652295 272.935C0.56583 258.56 0.563819 243.847 7.50004 230.812C8.01281 229.826 8.01281 229.826 8.53593 228.819C14.533 217.847 23.022 209.978 34 204C34.6446 203.642 35.2891 203.283 35.9532 202.914C38.057 201.801 39.59 201 42 201C41.9652 199.811 41.9304 198.623 41.8946 197.398C40.9069 148.304 59.5293 101.527 92 65C92.8689 64.0087 93.7377 63.0174 94.6329 61.9961C99.4582 56.5731 104.367 51.5742 110 47C110.971 46.1918 111.941 45.3835 112.941 44.5508C148.4 15.4906 192.467 -0.213208 238.25 -0.25ZM124 58C123.207 58.6832 122.414 59.3664 121.598 60.0703C87.9587 89.7237 66.6675 128.566 60 173C59.8009 174.239 59.8009 174.239 59.5977 175.504C58.569 182.931 58.9372 190.527 59 198C63.95 197.67 68.9 197.34 74 197C74.1586 195.15 74.3172 193.3 74.4805 191.395C78.06 152.067 89.5971 115.457 117 86C117.564 85.3927 118.127 84.7854 118.708 84.1597C127.364 74.939 136.443 66.9689 147 60C147.603 59.6009 148.206 59.2017 148.827 58.7905C183.799 35.9923 229.508 26.4681 270.648 34.9688C272.101 35.3047 273.551 35.6488 275 36C275.821 36.1934 276.643 36.3867 277.489 36.5859C306.231 43.5484 331.563 57.67 353 78C353.896 78.843 354.792 79.6861 355.715 80.5547C366.888 91.3673 375.47 103.435 383 117C383.348 117.622 383.696 118.244 384.055 118.885C397.494 143.256 402 169.554 404 197C408.95 197.33 413.9 197.66 419 198C419.877 166.734 411.615 137.451 397 110C396.525 109.091 396.525 109.091 396.04 108.164C388.449 93.7456 378.193 81.7324 367 70C366.189 69.1363 365.378 68.2727 364.543 67.3828C339.597 41.5103 305.757 26.1437 271 19C269.853 18.7641 268.705 18.5282 267.523 18.2852C217.475 9.42649 162.374 24.7651 124 58ZM31 227C21.0572 237.468 17.6825 250.375 17.7254 264.466C17.7203 265.354 17.7152 266.241 17.7099 267.156C17.6961 270.058 17.6969 272.961 17.6993 275.863C17.6954 277.903 17.691 279.943 17.6863 281.982C17.6788 286.246 17.6791 290.51 17.6844 294.774C17.6902 300.207 17.6732 305.64 17.65 311.073C17.6352 315.283 17.6344 319.493 17.6375 323.703C17.637 325.705 17.6319 327.706 17.6217 329.708C17.5544 344.864 17.8162 358.22 27 371C27.4409 371.636 27.8818 372.271 28.336 372.926C34.0789 380.412 43.038 385.418 52 388C53.98 388 55.96 388 58 388C58 330.91 58 273.82 58 215C47.3521 215 38.8766 220.119 31 227ZM420 215C420 272.09 420 329.18 420 388C431.55 386.717 441.155 382.843 449 374C457.252 363.037 460.143 352.515 460.161 338.972C460.166 338.083 460.171 337.195 460.176 336.279C460.191 333.35 460.198 330.421 460.203 327.492C460.206 326.487 460.209 325.481 460.212 324.445C460.227 319.121 460.236 313.797 460.24 308.473C460.246 302.999 460.27 297.525 460.298 292.052C460.317 287.82 460.322 283.589 460.324 279.358C460.327 277.341 460.335 275.325 460.348 273.309C460.448 256.807 459.627 240.469 447.781 227.656C439.98 220.402 430.831 215 420 215Z" fill="#003366"/>
</svg>
