<svg width="512" height="512" viewBox="0 0 512 512" fill="none" xmlns="http://www.w3.org/2000/svg">
<g clip-path="url(#clip0_104_86)">
<path d="M271.217 41.9509C272.719 42.5615 272.719 42.5615 274.251 43.1845C277.558 44.5313 280.861 45.8888 284.164 47.2461C286.503 48.2 288.841 49.153 291.181 50.1051C296.044 52.0852 300.907 54.0686 305.769 56.0539C315.768 60.1326 325.788 64.159 335.809 68.1822C339.046 69.4819 342.283 70.7826 345.52 72.0836C351.011 74.2912 356.503 76.498 361.995 78.7046C365.443 80.0899 368.891 81.4755 372.339 82.861C395.458 92.1522 418.579 101.44 441.715 110.691C442.533 111.019 443.351 111.346 444.194 111.683C451.661 114.668 459.128 117.652 466.596 120.633C481.76 126.685 496.903 132.782 512 139C512 139.66 512 140.32 512 141C497.645 146.94 497.645 146.94 483 153C483 203.82 483 254.64 483 307C486.63 308.98 490.26 310.96 494 313C503.154 319.866 510.327 329.44 512 341C513.179 355.996 511.453 367.82 502 380C497.728 384.433 493.288 387.873 488 391C489.747 396.418 491.498 401.834 493.25 407.25C493.515 408.069 493.78 408.887 494.052 409.731C497.15 419.302 500.274 428.863 503.469 438.402C503.746 439.231 504.023 440.059 504.309 440.912C505.648 444.909 506.992 448.904 508.341 452.897C508.826 454.342 509.312 455.786 509.797 457.23C510.021 457.89 510.246 458.55 510.477 459.23C512 463.774 512 463.774 512 466C508.212 467.288 504.421 468.569 500.629 469.845C499.34 470.28 498.05 470.717 496.762 471.155C494.909 471.785 493.054 472.408 491.199 473.031C490.084 473.408 488.968 473.785 487.819 474.174C485 475 485 475 482 475C480 469.218 478.007 463.434 476.019 457.648C475.341 455.679 474.662 453.711 473.981 451.743C473.004 448.918 472.033 446.09 471.062 443.262C470.756 442.38 470.45 441.499 470.135 440.591C469.854 439.77 469.574 438.95 469.285 438.104C468.912 437.022 468.912 437.022 468.531 435.917C468 434 468 434 468 431C467.34 431 466.68 431 466 431C465.888 431.551 465.777 432.101 465.662 432.669C464.513 438.107 463.018 443.293 461.18 448.535C460.916 449.299 460.653 450.063 460.381 450.851C459.55 453.256 458.713 455.659 457.875 458.062C457.306 459.708 456.737 461.353 456.168 462.998C454.784 467.001 453.394 471.001 452 475C445.114 473.602 438.582 471.65 431.938 469.375C430.496 468.888 430.496 468.888 429.025 468.391C426.682 467.598 424.341 466.8 422 466C424.249 457.252 427.012 448.702 429.887 440.145C430.354 438.748 430.82 437.351 431.286 435.954C432.502 432.315 433.721 428.678 434.941 425.04C436.19 421.313 437.436 417.585 438.682 413.857C441.118 406.57 443.558 399.285 446 392C443.707 389.654 441.343 387.743 438.688 385.812C430.394 379.388 423.482 369.585 422 359C420.921 344.286 422.489 332.456 431.793 320.477C437.462 314.115 443.341 310.83 451 307C451 260.47 451 213.94 451 166C434.933 172.394 418.866 178.787 402.312 185.375C397.028 187.476 391.744 189.576 386.299 191.741C364.244 200.511 342.198 209.3 320.204 218.222C317.191 219.444 314.177 220.663 311.163 221.882C310.196 222.272 309.229 222.663 308.233 223.066C306.325 223.837 304.416 224.609 302.507 225.38C297.002 227.606 291.502 229.847 286.006 232.099C282.623 233.481 279.235 234.85 275.845 236.215C274.292 236.843 272.742 237.477 271.194 238.118C269.096 238.986 266.991 239.832 264.884 240.675C263.715 241.151 262.546 241.628 261.342 242.119C254.127 244.021 248.068 241.052 241.496 238.283C240.566 237.9 239.636 237.516 238.678 237.121C236.659 236.287 234.64 235.449 232.623 234.608C227.102 232.309 221.57 230.037 216.039 227.762C214.884 227.286 213.73 226.81 212.54 226.32C200.169 221.231 187.745 216.279 175.312 211.344C173.05 210.445 170.788 209.546 168.526 208.647C161.685 205.929 154.843 203.214 148 200.5C138.895 196.888 129.79 193.275 120.688 189.656C119.576 189.214 118.464 188.772 117.318 188.317C95.7557 179.741 74.2708 170.98 52.7963 162.186C41.7013 157.645 30.5757 153.183 19.4375 148.75C17.4928 147.974 15.5481 147.198 13.6035 146.422C9.06981 144.613 4.53522 142.806 0 141C0 140.34 0 139.68 0 139C33.2453 125.353 66.579 111.942 99.9811 98.6845C110.321 94.5804 120.659 90.4731 130.996 86.3633C132.11 85.9206 133.223 85.4779 134.37 85.0218C159.384 75.0739 184.352 65.014 209.257 54.799C214.595 52.6101 219.938 50.4339 225.282 48.2632C227.617 47.3112 229.95 46.3532 232.281 45.3901C235.768 43.9505 239.264 42.5318 242.762 41.1172C244.314 40.4676 244.314 40.4676 245.899 39.8049C247.346 39.2264 247.346 39.2264 248.823 38.6362C249.658 38.2945 250.493 37.9527 251.353 37.6006C258.381 36.0062 264.844 39.3108 271.217 41.9509Z" fill="#003366"/>
<path d="M121 220C137.564 226.305 154.048 232.783 170.472 239.445C174.107 240.918 177.744 242.387 181.382 243.854C192.601 248.378 203.814 252.916 215.004 257.513C219.613 259.404 224.227 261.283 228.843 263.16C231.017 264.048 233.19 264.942 235.359 265.842C238.361 267.087 241.371 268.311 244.383 269.531C245.259 269.901 246.136 270.27 247.039 270.651C255.321 273.96 261.142 272.224 269.082 268.906C269.893 268.575 270.704 268.244 271.54 267.903C273.34 267.168 275.139 266.429 276.937 265.687C280.943 264.033 284.957 262.398 288.971 260.761C291.27 259.823 293.569 258.884 295.867 257.945C312.627 251.096 329.426 244.348 346.222 237.588C350.937 235.691 355.65 233.791 360.364 231.89C363.934 230.45 367.504 229.012 371.075 227.575C372.764 226.895 374.452 226.214 376.14 225.533C378.461 224.596 380.783 223.662 383.105 222.728C383.794 222.449 384.484 222.17 385.194 221.883C389.886 220 389.886 220 391 220C391.102 226.919 391.172 233.838 391.22 240.758C391.24 243.108 391.267 245.458 391.302 247.808C391.351 251.201 391.373 254.594 391.391 257.988C391.411 259.025 391.432 260.062 391.453 261.13C391.458 276.822 383.474 289.262 372.848 300.246C368.861 304.101 364.732 307.13 360 310C358.94 310.656 357.881 311.312 356.789 311.988C330.693 327.758 298.518 335.044 268.207 335.203C267.306 335.21 266.406 335.217 265.478 335.224C262.589 335.242 259.701 335.248 256.812 335.25C255.826 335.251 254.839 335.251 253.822 335.252C239.359 335.236 225.218 334.908 211 332C210.115 331.823 209.229 331.646 208.317 331.464C179.805 325.603 147.698 314.393 130 289.812C123.216 279.381 120.683 270.811 120.805 258.379C120.808 257.279 120.81 256.179 120.813 255.046C120.824 251.551 120.849 248.057 120.875 244.562C120.885 242.186 120.894 239.809 120.902 237.432C120.924 231.621 120.958 225.811 121 220Z" fill="#003366"/>
</g>
<defs>
<clipPath id="clip0_104_86">
<rect width="512" height="512" fill="white"/>
</clipPath>
</defs>
</svg>
