<svg width="513" height="513" viewBox="0 0 513 513" fill="none" xmlns="http://www.w3.org/2000/svg">
<path d="M245.667 470.222C160.185 470.222 117.445 470.222 90.8891 438.98C64.3334 407.739 64.3334 357.454 64.3334 256.889C64.3334 156.323 64.3334 106.039 90.8891 74.7976C117.445 43.5556 160.185 43.5556 245.667 43.5556C331.147 43.5556 373.889 43.5556 400.444 74.7976C421.82 99.9464 425.991 137.434 426.804 203.556" stroke="#003366" stroke-width="20" stroke-linecap="round" stroke-linejoin="round"/>
<path d="M171 171.556H320.333M171 278.222H235" stroke="#003366" stroke-width="20" stroke-linecap="round" stroke-linejoin="round"/>
<path d="M418.663 387.137C436.645 374.047 448.333 352.833 448.333 328.889C448.333 289.124 416.099 256.889 376.333 256.889H371C331.235 256.889 299 289.124 299 328.889C299 352.833 310.689 374.047 328.67 387.137M418.663 387.137C406.782 395.786 392.154 400.889 376.333 400.889H371C355.179 400.889 340.551 395.786 328.67 387.137M418.663 387.137L431.096 426.284C435.838 441.215 438.211 448.682 437.562 453.331C436.212 463.005 428.321 470.188 419.004 470.222C414.529 470.239 407.821 466.719 394.409 459.681C388.658 456.663 385.782 455.152 382.84 454.265C376.845 452.458 370.488 452.458 364.493 454.265C361.551 455.152 358.676 456.663 352.924 459.681C339.512 466.719 332.805 470.239 328.329 470.222C319.013 470.188 311.122 463.005 309.771 453.331C309.123 448.682 311.495 441.215 316.237 426.284L328.67 387.137" stroke="#003366" stroke-width="20"/>
</svg>
