<svg width="1446" height="252" viewBox="0 0 1446 252" fill="none" xmlns="http://www.w3.org/2000/svg">
<g clip-path="url(#clip0_25_346)">
<path d="M110.966 3.97803C113.981 4.93165 115.302 4.00051 118.115 2.65772C127.619 -1.08048 140.207 -0.853298 149.619 3.20069C159.431 8.92856 165.952 16.7796 168.927 27.6577C170.103 32.4387 170.215 36.7648 170.115 41.6577C174.158 41.6932 178.197 41.6511 182.24 41.5952C183.382 41.6062 184.524 41.6171 185.701 41.6284C191.804 41.6651 191.804 41.6651 197.118 39.1074C198.686 37.2812 198.686 37.2812 199.864 35.3513C201.811 32.7142 204.08 31.8195 207.263 31.3218C214.11 31.2017 217.385 33.2151 222.49 37.7827C224.893 42.0341 224.761 45.8831 224.115 50.6577C222.163 55.3818 218.665 58.3824 214.115 60.6577C209.104 61.2075 205.218 61.2193 200.677 58.9077C198.115 56.6577 198.115 56.6577 196.933 54.5508C196.933 52.1436 196.933 52.2468 191.685 52.1436C190.275 52.1158 188.865 52.1088 187.455 52.1187C186.336 52.101 186.336 52.101 185.195 52.0829C182.814 52.0476 180.434 52.0385 178.052 52.0327C175.668 52.0164 173.283 51.9944 170.899 51.9611C169.415 51.9414 167.932 51.9321 166.448 51.9342C161.338 51.8812 161.338 51.8812 159.115 49.6577C158.909 46.9732 158.796 44.3453 158.74 41.6577C158.344 31.9359 156.458 23.5116 149.115 16.6577C141.31 10.8764 131.303 12.3009 122.115 12.6577C122.452 13.2984 122.79 13.939 123.138 14.5991C123.584 15.4641 124.03 16.329 124.49 17.2202C125.151 18.4906 125.151 18.4906 125.826 19.7866C128.598 25.961 129.484 31.7388 129.74 38.4077C129.778 39.2723 129.816 40.1368 129.855 41.0276C130.411 55.8892 130.172 70.7926 130.115 85.6577C145.295 85.6577 160.475 85.6577 176.115 85.6577C176.775 84.0077 177.435 82.3577 178.115 80.6577C180.908 77.435 182.527 75.9781 186.708 75.1343C191.734 74.8444 195.216 75.1512 199.177 78.4077C202.704 81.8226 204.403 85.0966 204.49 90.0327C204.347 95.8143 201.745 98.78 198.052 103.033C193.514 105.543 189.181 105.408 184.115 104.658C180.204 102.668 178.538 101.292 176.115 97.6577C176.115 96.6677 176.115 95.6777 176.115 94.6577C175.125 95.1527 175.125 95.1527 174.115 95.6577C172.695 95.7471 171.271 95.7753 169.849 95.7712C168.527 95.7711 168.527 95.7711 167.18 95.771C166.227 95.7658 165.275 95.7607 164.294 95.7554C163.321 95.754 162.347 95.7525 161.343 95.7511C158.226 95.7455 155.108 95.7329 151.99 95.7202C149.879 95.7152 147.768 95.7106 145.658 95.7065C140.477 95.6964 135.296 95.6768 130.115 95.6577C130.115 104.898 130.115 114.138 130.115 123.658C158.825 123.658 187.535 123.658 217.115 123.658C218.105 121.678 218.105 121.678 219.115 119.658C222.814 115.871 225.672 113.811 231.029 113.462C236.33 113.959 240.02 116.508 243.615 120.283C245.647 124.855 245.792 128.729 245.115 133.658C243.388 137.839 240.794 140.082 237.115 142.658C232.409 144.226 228.588 144.207 223.927 142.47C221.115 140.658 221.115 140.658 219.466 138.086C216.694 135.223 215.003 135.053 211.096 134.972C210.297 134.981 209.498 134.989 208.674 134.998C207.825 134.988 206.976 134.977 206.101 134.967C203.298 134.938 200.496 134.944 197.693 134.951C195.748 134.938 193.803 134.922 191.858 134.905C186.742 134.865 181.626 134.855 176.51 134.851C171.288 134.842 166.067 134.804 160.845 134.769C150.602 134.704 140.358 134.674 130.115 134.658C130.115 143.898 130.115 153.138 130.115 162.658C136.576 162.653 143.033 162.629 149.493 162.56C151.69 162.542 153.887 162.534 156.084 162.538C159.245 162.54 162.403 162.505 165.564 162.462C167.034 162.476 167.034 162.476 168.535 162.49C173.514 162.495 173.514 162.495 177.807 160.316C179.339 158.521 179.339 158.521 181.115 155.658C185.169 152.97 189.4 152.978 194.115 153.658C198.759 156.152 202.428 158.599 204.115 163.658C204.639 168.652 204.665 172.537 202.427 177.095C199.389 180.462 197.369 182.39 192.747 182.939C187.754 183.117 184.061 183.023 180.115 179.658C176.115 175.225 176.115 175.225 176.115 172.658C160.935 172.658 145.755 172.658 130.115 172.658C130.154 182.184 130.154 182.184 130.205 191.711C130.275 226.207 130.275 226.207 121.115 237.658C130.128 239.46 138.12 239.339 146.099 234.439C150.884 230.758 153.501 226.454 155.115 220.658C155.466 217.773 155.673 214.946 155.744 212.041C156.115 209.658 156.115 209.658 157.155 208.027C160.175 205.917 163.298 206.289 166.845 206.365C167.596 206.369 168.346 206.373 169.119 206.378C171.514 206.394 173.908 206.432 176.302 206.47C177.927 206.485 179.551 206.499 181.175 206.511C185.155 206.544 189.135 206.596 193.115 206.658C193.41 205.865 193.705 205.073 194.008 204.257C195.796 200.057 199.046 198.452 203.115 196.658C208.345 195.936 211.69 196.806 216.115 199.658C220.261 204.034 222.115 207.474 222.115 213.533C221.341 218.396 218.747 221.468 215.115 224.658C211.176 226.98 207.631 227.125 203.115 226.658C200.334 225.618 198.583 224.448 196.115 222.658C195.125 220.183 195.125 220.183 194.115 217.658C184.875 217.658 175.635 217.658 166.115 217.658C165.785 220.958 165.455 224.258 165.115 227.658C163.057 233.268 159.599 237.734 155.115 241.658C154.393 242.338 153.671 243.019 152.927 243.72C145.26 249.002 136.358 251.49 127.115 250.658C122.341 249.595 118.198 248.38 114.115 245.658C111.443 245.939 109.363 246.541 106.931 247.681C98.9868 250.436 87.9884 249.72 80.4272 246.119C74.65 242.469 69.307 238.241 66.3022 232.025C64.5948 228.885 64.1296 228.664 60.5756 227.091C59.2193 226.737 57.8568 226.406 56.4897 226.095C49.5972 224.237 43.9555 221.873 38.1147 217.658C37.4714 217.208 36.8282 216.758 36.1655 216.294C29.1442 210.888 25.063 203.202 23.1147 194.658C22.8281 191.714 22.7821 188.802 22.8022 185.845C22.8035 185.057 22.8048 184.269 22.8061 183.457C22.9042 177.494 23.7797 172.189 26.1147 166.658C25.4018 166.422 24.689 166.186 23.9545 165.943C14.7898 161.795 6.94473 152.492 3.12641 143.271C-1.31044 130.549 -1.06357 118.188 4.11469 105.658C7.41378 99.5076 11.3185 93.6379 17.1772 89.7202C18.967 88.493 18.967 88.493 20.1147 86.6577C20.4481 83.1887 20.2911 79.8714 20.1186 76.3921C20.1075 65.7631 24.8696 56.4673 31.8569 48.728C37.797 42.9851 45.7573 38.6577 54.1147 38.6577C54.1173 38.0751 54.1198 37.4924 54.1225 36.8921C54.5533 27.7582 58.1008 19.552 64.3022 12.7827C68.6882 8.81301 73.7905 6.16055 79.1147 3.65772C79.834 3.31483 80.5533 2.97194 81.2944 2.61865C90.7791 -1.21104 101.987 -0.842425 110.966 3.97803Z" fill="white"/>
<path d="M108.527 16.1477C114.316 20.6103 117.128 26.8539 118.539 33.929C118.634 36.3559 118.67 38.7854 118.673 41.2142C118.675 41.9497 118.677 42.6852 118.68 43.4429C118.686 45.9085 118.685 48.374 118.684 50.8396C118.687 52.6072 118.691 54.3748 118.695 56.1424C118.703 60.9464 118.706 65.7504 118.706 70.5544C118.707 73.5576 118.709 76.5609 118.712 79.5641C118.721 90.047 118.725 100.53 118.724 111.013C118.724 120.774 118.734 130.535 118.75 140.296C118.763 148.683 118.769 157.069 118.768 165.456C118.768 170.462 118.771 175.468 118.781 180.473C118.791 185.187 118.791 189.899 118.784 194.612C118.783 196.337 118.785 198.061 118.791 199.786C118.873 224.663 118.873 224.663 110.539 233.929C104.611 238.706 99.1782 240.545 91.5392 239.929C83.9231 238.007 78.7363 234.609 74.5392 227.929C71.3036 221.247 69.1063 214.88 71.2345 207.527C73.1347 202.217 75.5043 198.551 79.34 194.464C80.7887 192.868 80.7887 192.868 80.9767 190.054C80.7473 187.954 80.7473 187.954 79.5392 186.929C77.2992 186.255 77.2992 186.255 74.5392 186.929C67.9234 191.747 63.4099 198.648 61.7892 206.617C61.2906 210.051 60.8684 213.474 60.5392 216.929C51.7421 215.944 45.4055 212.633 39.5392 205.929C38.8173 205.125 38.0954 204.32 37.3517 203.492C32.2188 196.235 32.8717 187.404 33.5392 178.929C35.8507 169.143 43.5501 161.948 51.6525 156.538C58.7524 152.58 66.3334 149.519 74.5392 149.929C74.9401 150.847 75.341 151.765 75.754 152.71C79.6209 161.186 83.8271 168.573 92.5392 172.929C94.8722 172.969 97.2063 172.972 99.5392 172.929C100.21 169.684 100.21 169.684 99.5392 165.929C97.7356 164.224 95.7882 162.97 93.7228 161.597C90.0857 158.819 87.2973 155.159 85.5392 150.929C85.7983 146.928 87.3507 144.347 89.5392 141.054C92.15 136.849 93.5392 133.892 93.5392 128.929C91.7132 126.722 91.7132 126.722 89.1173 126.495C86.358 126.669 86.358 126.669 84.7736 129.081C84.2837 130 83.7939 130.92 83.2892 131.866C82.5389 133.241 82.5389 133.241 81.7736 134.644C81.3662 135.398 80.9589 136.152 80.5392 136.929C78.6496 138.819 75.3837 138.731 72.8517 139.179C56.499 142.312 44.725 148.73 32.5392 159.929C22.6356 154.872 15.5515 148.461 11.5392 137.929C8.82384 129.4 9.83109 118.993 13.5392 110.929C16.3188 106.436 19.656 102.513 23.5392 98.929C26.6233 100.261 28.2077 101.535 30.1642 104.241C34.424 109.447 40.9211 112.755 47.5392 113.929C49.8912 114.047 52.2467 114.104 54.6017 114.116C55.8302 114.131 57.0586 114.145 58.3243 114.159C61.6916 114.184 61.6916 114.184 64.5392 111.929C64.1601 108.638 64.1601 108.638 62.5392 105.929C60.728 105.822 58.915 105.744 57.1017 105.679C48.7563 105.015 42.4555 102.291 36.6017 96.2415C31.7248 90.1454 29.7091 82.6766 30.5392 74.929C32.3109 66.9051 35.061 60.3473 41.6876 55.097C45.6333 52.608 50.8032 49.929 55.5392 49.929C55.8795 50.6418 56.2198 51.3547 56.5704 52.0892C62.0265 62.8708 68.0771 68.1475 79.5392 71.929C78.6064 73.0579 77.6678 74.182 76.7267 75.304C76.2046 75.9305 75.6825 76.557 75.1447 77.2024C73.5392 78.929 73.5392 78.929 70.5392 80.929C70.289 84.0126 70.289 84.0126 70.5392 86.929C74.5713 87.7179 76.5057 87.6125 79.9845 85.3118C87.818 78.5802 95.408 69.3283 97.5392 58.929C97.7514 55.5772 97.7247 52.2812 97.5392 48.929C95.5592 48.929 93.5792 48.929 91.5392 48.929C91.3574 49.5207 91.1757 50.1124 90.9884 50.722C89.5825 55.1415 88.1639 59.0544 85.5392 62.929C78.6875 62.0279 74.1441 60.1798 69.5392 54.929C65.2371 48.8748 63.8111 43.3175 64.5392 35.929C66.1665 28.8131 70.0493 22.532 75.9064 18.1634C86.4993 11.5307 97.444 9.35398 108.527 16.1477Z" fill="#03599B"/>
<rect x="192" y="195" width="33" height="37" fill="#03599B"/>
<rect x="192" y="195" width="33" height="37" fill="#03599B" fill-opacity="0.1"/>
<ellipse cx="205" cy="212.5" rx="15" ry="14.5" fill="#D9D9D9"/>
<circle cx="205" cy="213" r="5" fill="#03599B"/>
<rect x="213" y="111" width="33" height="37" fill="#03599B"/>
<rect x="213" y="111" width="33" height="37" fill="#03599B" fill-opacity="0.1"/>
<ellipse cx="226" cy="128.5" rx="15" ry="14.5" fill="#D9D9D9"/>
<circle cx="226" cy="129" r="5" fill="#03599B"/>
<rect x="175" y="72" width="33" height="37" fill="#03599B"/>
<rect x="175" y="72" width="33" height="37" fill="#03599B" fill-opacity="0.1"/>
<ellipse cx="188" cy="89.5" rx="15" ry="14.5" fill="#D9D9D9"/>
<circle cx="188" cy="90" r="5" fill="#03599B"/>
<rect x="191" y="30" width="37" height="37" fill="#03599B"/>
<rect x="191" y="30" width="37" height="37" fill="#03599B" fill-opacity="0.1"/>
<ellipse cx="204" cy="47.5" rx="15" ry="14.5" fill="#D9D9D9"/>
<circle cx="204" cy="48" r="5" fill="#03599B"/>
<rect x="173" y="150" width="33" height="37" fill="#03599B"/>
<rect x="173" y="150" width="33" height="37" fill="#03599B" fill-opacity="0.1"/>
<ellipse cx="186" cy="167.5" rx="15" ry="14.5" fill="#D9D9D9"/>
<circle cx="186" cy="168" r="5" fill="#03599B"/>
</g>
<path d="M295.859 13.1406V134H273.032V13.1406H295.859ZM348.852 63.3604V134H326.938V44.1855H347.523L348.852 63.3604ZM345.365 85.8555H338.891C338.946 79.3255 339.831 73.4043 341.547 68.0918C343.262 62.7793 345.67 58.2139 348.769 54.3955C351.923 50.5771 355.658 47.6442 359.975 45.5967C364.291 43.5492 369.105 42.5254 374.418 42.5254C378.734 42.5254 382.636 43.1341 386.122 44.3516C389.608 45.569 392.597 47.5059 395.087 50.1621C397.632 52.8184 399.569 56.3047 400.897 60.6211C402.281 64.8822 402.973 70.1393 402.973 76.3926V134H380.893V76.2266C380.893 72.1315 380.284 68.8942 379.066 66.5146C377.904 64.1351 376.189 62.4473 373.92 61.4512C371.706 60.4551 368.967 59.957 365.702 59.957C362.326 59.957 359.366 60.6488 356.82 62.0322C354.33 63.3604 352.227 65.2142 350.512 67.5938C348.852 69.9733 347.579 72.7126 346.693 75.8115C345.808 78.9105 345.365 82.2585 345.365 85.8555ZM459.534 134H437.454V35.8848C437.454 29.1335 438.755 23.4613 441.355 18.8682C443.956 14.2197 447.664 10.7057 452.479 8.32617C457.293 5.94661 462.965 4.75684 469.495 4.75684C471.653 4.75684 473.701 4.89518 475.638 5.17188C477.63 5.44857 479.594 5.83594 481.531 6.33398L481.116 23.0186C480.065 22.7419 478.903 22.5482 477.63 22.4375C476.412 22.3268 475.057 22.2715 473.562 22.2715C470.574 22.2715 468.029 22.7972 465.926 23.8486C463.823 24.9001 462.218 26.4495 461.111 28.4971C460.06 30.4893 459.534 32.9518 459.534 35.8848V134ZM477.713 44.1855V59.957H423.924V44.1855H477.713ZM521.657 62.5303V134H499.743V44.1855H520.495L521.657 62.5303ZM548.967 43.6045L548.635 64.0244C547.417 63.8031 546.034 63.637 544.484 63.5264C542.99 63.4157 541.579 63.3604 540.251 63.3604C536.875 63.3604 533.915 63.8307 531.369 64.7715C528.824 65.6569 526.693 66.9574 524.978 68.6729C523.317 70.3883 522.045 72.4912 521.159 74.9814C520.274 77.4163 519.776 80.1833 519.665 83.2822L514.934 82.7012C514.934 77.0013 515.515 71.7165 516.677 66.8467C517.839 61.9769 519.527 57.7158 521.74 54.0635C523.954 50.4111 526.721 47.5889 530.041 45.5967C533.417 43.5492 537.29 42.5254 541.662 42.5254C542.88 42.5254 544.18 42.6361 545.563 42.8574C547.002 43.0234 548.137 43.2725 548.967 43.6045ZM616.153 114.908V73.4873C616.153 70.4437 615.628 67.8151 614.576 65.6016C613.525 63.388 611.92 61.6725 609.762 60.4551C607.604 59.2376 604.864 58.6289 601.544 58.6289C598.611 58.6289 596.038 59.127 593.824 60.123C591.666 61.1191 590.006 62.5303 588.844 64.3564C587.682 66.1273 587.101 68.1748 587.101 70.499H565.104C565.104 66.7913 565.989 63.2773 567.76 59.957C569.531 56.5814 572.049 53.5931 575.313 50.9922C578.634 48.3359 582.59 46.2607 587.184 44.7666C591.832 43.2725 597.034 42.5254 602.789 42.5254C609.596 42.5254 615.655 43.6875 620.968 46.0117C626.336 48.2806 630.541 51.7116 633.585 56.3047C636.684 60.8978 638.233 66.6807 638.233 73.6533V112.833C638.233 117.315 638.51 121.161 639.063 124.371C639.672 127.525 640.558 130.265 641.72 132.589V134H619.391C618.339 131.731 617.537 128.854 616.983 125.367C616.43 121.826 616.153 118.339 616.153 114.908ZM619.225 79.2979L619.391 92.3301H605.528C602.097 92.3301 599.081 92.6898 596.48 93.4092C593.88 94.0732 591.749 95.0693 590.089 96.3975C588.429 97.6702 587.184 99.2197 586.354 101.046C585.523 102.817 585.108 104.837 585.108 107.105C585.108 109.319 585.606 111.311 586.603 113.082C587.654 114.853 589.148 116.264 591.085 117.315C593.077 118.312 595.401 118.81 598.058 118.81C601.931 118.81 605.307 118.035 608.185 116.485C611.062 114.881 613.303 112.944 614.908 110.675C616.513 108.406 617.371 106.248 617.481 104.2L623.79 113.663C623.015 115.932 621.853 118.339 620.304 120.885C618.754 123.43 616.762 125.81 614.327 128.023C611.892 130.237 608.959 132.063 605.528 133.502C602.097 134.941 598.113 135.66 593.575 135.66C587.765 135.66 582.563 134.498 577.97 132.174C573.377 129.85 569.752 126.668 567.096 122.628C564.439 118.588 563.111 113.995 563.111 108.849C563.111 104.09 563.997 99.8838 565.768 96.2314C567.538 92.5791 570.167 89.5078 573.653 87.0176C577.14 84.472 581.456 82.5628 586.603 81.29C591.804 79.9619 597.753 79.2979 604.449 79.2979H619.225ZM678.11 13.1406H697.866L730.903 104.117L763.857 13.1406H783.696L738.789 134H722.935L678.11 13.1406ZM668.149 13.1406H687.49L690.977 96.7295V134H668.149V13.1406ZM774.233 13.1406H793.657V134H770.83V96.7295L774.233 13.1406ZM846.981 44.1855V134H824.984V44.1855H846.981ZM823.49 20.6943C823.49 17.4294 824.597 14.7178 826.811 12.5596C829.079 10.4014 832.123 9.32227 835.941 9.32227C839.76 9.32227 842.776 10.4014 844.989 12.5596C847.258 14.7178 848.393 17.4294 848.393 20.6943C848.393 23.904 847.258 26.5879 844.989 28.7461C842.776 30.9043 839.76 31.9834 835.941 31.9834C832.123 31.9834 829.079 30.9043 826.811 28.7461C824.597 26.5879 823.49 23.904 823.49 20.6943ZM897.898 63.3604V134H875.984V44.1855H896.57L897.898 63.3604ZM894.412 85.8555H887.938C887.993 79.3255 888.878 73.4043 890.594 68.0918C892.309 62.7793 894.716 58.2139 897.815 54.3955C900.97 50.5771 904.705 47.6442 909.021 45.5967C913.338 43.5492 918.152 42.5254 923.465 42.5254C927.781 42.5254 931.683 43.1341 935.169 44.3516C938.655 45.569 941.644 47.5059 944.134 50.1621C946.679 52.8184 948.616 56.3047 949.944 60.6211C951.328 64.8822 952.02 70.1393 952.02 76.3926V134H929.939V76.2266C929.939 72.1315 929.331 68.8942 928.113 66.5146C926.951 64.1351 925.236 62.4473 922.967 61.4512C920.753 60.4551 918.014 59.957 914.749 59.957C911.373 59.957 908.413 60.6488 905.867 62.0322C903.377 63.3604 901.274 65.2142 899.559 67.5938C897.898 69.9733 896.626 72.7126 895.74 75.8115C894.855 78.9105 894.412 82.2585 894.412 85.8555ZM1033.73 114.908V6.5H1055.81V134H1035.89L1033.73 114.908ZM976.042 90.1719V88.4287C976.042 81.5667 976.817 75.3411 978.366 69.752C979.971 64.1074 982.295 59.2653 985.339 55.2256C988.382 51.1859 992.062 48.0592 996.379 45.8457C1000.75 43.6322 1005.7 42.5254 1011.24 42.5254C1016.61 42.5254 1021.28 43.6045 1025.27 45.7627C1029.31 47.9209 1032.74 50.9922 1035.56 54.9766C1038.44 58.9609 1040.73 63.6924 1042.45 69.1709C1044.16 74.5941 1045.41 80.5706 1046.18 87.1006V91.832C1045.41 98.196 1044.16 104.034 1042.45 109.347C1040.73 114.659 1038.44 119.308 1035.56 123.292C1032.74 127.221 1029.31 130.265 1025.27 132.423C1021.23 134.581 1016.49 135.66 1011.07 135.66C1005.59 135.66 1000.67 134.526 996.296 132.257C991.979 129.988 988.299 126.806 985.256 122.711C982.268 118.616 979.971 113.801 978.366 108.268C976.817 102.734 976.042 96.7018 976.042 90.1719ZM998.039 88.4287V90.1719C998.039 94.0456 998.371 97.6702 999.035 101.046C999.699 104.422 1000.78 107.41 1002.27 110.011C1003.77 112.556 1005.68 114.549 1008 115.987C1010.38 117.426 1013.26 118.146 1016.63 118.146C1020.95 118.146 1024.49 117.205 1027.26 115.323C1030.08 113.386 1032.27 110.758 1033.82 107.438C1035.36 104.062 1036.36 100.271 1036.8 96.0654V83.0332C1036.58 79.7129 1036 76.6416 1035.06 73.8193C1034.18 70.9971 1032.9 68.5622 1031.24 66.5146C1029.64 64.4671 1027.65 62.8623 1025.27 61.7002C1022.89 60.5381 1020.06 59.957 1016.8 59.957C1013.42 59.957 1010.55 60.7041 1008.17 62.1982C1005.79 63.637 1003.85 65.6569 1002.36 68.2578C1000.86 70.8587 999.755 73.8747 999.035 77.3057C998.371 80.7367 998.039 84.4443 998.039 88.4287ZM278.359 179.906V251H268.936V179.906H278.359ZM308.164 209.447V251H299.131V198.168H307.676L308.164 209.447ZM306.016 222.582L302.256 222.436C302.288 218.822 302.826 215.486 303.867 212.426C304.909 209.333 306.374 206.648 308.262 204.369C310.15 202.09 312.396 200.333 315 199.096C317.637 197.826 320.55 197.191 323.74 197.191C326.344 197.191 328.688 197.549 330.771 198.266C332.855 198.949 334.629 200.056 336.094 201.586C337.591 203.116 338.73 205.102 339.512 207.543C340.293 209.952 340.684 212.898 340.684 216.381V251H331.602V216.283C331.602 213.516 331.195 211.303 330.381 209.643C329.567 207.95 328.379 206.729 326.816 205.98C325.254 205.199 323.333 204.809 321.055 204.809C318.809 204.809 316.758 205.281 314.902 206.225C313.079 207.169 311.501 208.471 310.166 210.131C308.864 211.791 307.839 213.695 307.09 215.844C306.374 217.96 306.016 220.206 306.016 222.582ZM372.881 251H363.848V192.602C363.848 188.793 364.531 185.587 365.898 182.982C367.298 180.346 369.3 178.36 371.904 177.025C374.508 175.658 377.601 174.975 381.182 174.975C382.223 174.975 383.265 175.04 384.307 175.17C385.381 175.3 386.423 175.495 387.432 175.756L386.943 183.129C386.26 182.966 385.479 182.852 384.6 182.787C383.753 182.722 382.907 182.689 382.061 182.689C380.14 182.689 378.48 183.08 377.08 183.861C375.713 184.61 374.671 185.717 373.955 187.182C373.239 188.646 372.881 190.453 372.881 192.602V251ZM384.111 198.168V205.102H355.498V198.168H384.111ZM408.203 206.469V251H399.17V198.168H407.959L408.203 206.469ZM424.707 197.875L424.658 206.273C423.91 206.111 423.193 206.013 422.51 205.98C421.859 205.915 421.11 205.883 420.264 205.883C418.18 205.883 416.341 206.208 414.746 206.859C413.151 207.51 411.8 208.422 410.693 209.594C409.587 210.766 408.708 212.165 408.057 213.793C407.438 215.388 407.031 217.146 406.836 219.066L404.297 220.531C404.297 217.341 404.606 214.346 405.225 211.547C405.876 208.747 406.868 206.273 408.203 204.125C409.538 201.944 411.23 200.251 413.281 199.047C415.365 197.81 417.839 197.191 420.703 197.191C421.354 197.191 422.103 197.273 422.949 197.436C423.796 197.566 424.382 197.712 424.707 197.875ZM467.256 241.967V214.77C467.256 212.686 466.833 210.88 465.986 209.35C465.173 207.787 463.936 206.583 462.275 205.736C460.615 204.89 458.564 204.467 456.123 204.467C453.844 204.467 451.842 204.857 450.117 205.639C448.424 206.42 447.09 207.445 446.113 208.715C445.169 209.984 444.697 211.352 444.697 212.816H435.664C435.664 210.928 436.152 209.057 437.129 207.201C438.105 205.346 439.505 203.669 441.328 202.172C443.184 200.642 445.397 199.438 447.969 198.559C450.573 197.647 453.47 197.191 456.66 197.191C460.501 197.191 463.887 197.842 466.816 199.145C469.779 200.447 472.09 202.416 473.75 205.053C475.443 207.657 476.289 210.928 476.289 214.867V239.477C476.289 241.234 476.436 243.106 476.729 245.092C477.054 247.077 477.526 248.786 478.145 250.219V251H468.721C468.265 249.958 467.907 248.575 467.646 246.85C467.386 245.092 467.256 243.464 467.256 241.967ZM468.818 218.969L468.916 225.316H459.785C457.214 225.316 454.919 225.528 452.9 225.951C450.882 226.342 449.189 226.944 447.822 227.758C446.455 228.572 445.413 229.597 444.697 230.834C443.981 232.038 443.623 233.454 443.623 235.082C443.623 236.742 443.997 238.256 444.746 239.623C445.495 240.99 446.618 242.081 448.115 242.895C449.645 243.676 451.517 244.066 453.73 244.066C456.497 244.066 458.939 243.48 461.055 242.309C463.171 241.137 464.847 239.704 466.084 238.012C467.354 236.319 468.037 234.675 468.135 233.08L471.992 237.426C471.764 238.793 471.146 240.307 470.137 241.967C469.128 243.627 467.777 245.222 466.084 246.752C464.424 248.249 462.438 249.503 460.127 250.512C457.848 251.488 455.277 251.977 452.412 251.977C448.831 251.977 445.69 251.277 442.988 249.877C440.319 248.477 438.236 246.605 436.738 244.262C435.273 241.885 434.541 239.232 434.541 236.303C434.541 233.471 435.094 230.98 436.201 228.832C437.308 226.651 438.903 224.844 440.986 223.412C443.07 221.947 445.576 220.84 448.506 220.092C451.436 219.343 454.707 218.969 458.32 218.969H468.818ZM517.422 251.977C513.743 251.977 510.407 251.358 507.412 250.121C504.45 248.852 501.895 247.077 499.746 244.799C497.63 242.52 496.003 239.818 494.863 236.693C493.724 233.568 493.154 230.15 493.154 226.439V224.389C493.154 220.092 493.789 216.267 495.059 212.914C496.328 209.529 498.053 206.664 500.234 204.32C502.415 201.977 504.889 200.202 507.656 198.998C510.423 197.794 513.288 197.191 516.25 197.191C520.026 197.191 523.281 197.842 526.016 199.145C528.783 200.447 531.045 202.27 532.803 204.613C534.561 206.924 535.863 209.659 536.709 212.816C537.555 215.941 537.979 219.359 537.979 223.07V227.123H498.525V219.75H528.945V219.066C528.815 216.723 528.327 214.444 527.48 212.23C526.667 210.017 525.365 208.194 523.574 206.762C521.784 205.329 519.342 204.613 516.25 204.613C514.199 204.613 512.311 205.053 510.586 205.932C508.861 206.778 507.38 208.048 506.143 209.74C504.906 211.433 503.945 213.5 503.262 215.941C502.578 218.383 502.236 221.199 502.236 224.389V226.439C502.236 228.946 502.578 231.306 503.262 233.52C503.978 235.701 505.003 237.621 506.338 239.281C507.705 240.941 509.349 242.243 511.27 243.188C513.223 244.132 515.436 244.604 517.91 244.604C521.1 244.604 523.802 243.952 526.016 242.65C528.229 241.348 530.166 239.607 531.826 237.426L537.295 241.771C536.156 243.497 534.707 245.141 532.949 246.703C531.191 248.266 529.027 249.535 526.455 250.512C523.916 251.488 520.905 251.977 517.422 251.977ZM584.287 236.986C584.287 235.684 583.994 234.48 583.408 233.373C582.855 232.234 581.699 231.208 579.941 230.297C578.216 229.353 575.612 228.539 572.129 227.855C569.199 227.237 566.546 226.505 564.17 225.658C561.826 224.812 559.824 223.786 558.164 222.582C556.536 221.378 555.283 219.962 554.404 218.334C553.525 216.706 553.086 214.802 553.086 212.621C553.086 210.538 553.542 208.568 554.453 206.713C555.397 204.857 556.715 203.214 558.408 201.781C560.133 200.349 562.201 199.226 564.609 198.412C567.018 197.598 569.704 197.191 572.666 197.191C576.898 197.191 580.511 197.94 583.506 199.438C586.501 200.935 588.796 202.937 590.391 205.443C591.986 207.917 592.783 210.668 592.783 213.695H583.75C583.75 212.23 583.311 210.814 582.432 209.447C581.585 208.048 580.332 206.892 578.672 205.98C577.044 205.069 575.042 204.613 572.666 204.613C570.16 204.613 568.125 205.004 566.562 205.785C565.033 206.534 563.91 207.494 563.193 208.666C562.51 209.838 562.168 211.075 562.168 212.377C562.168 213.354 562.331 214.232 562.656 215.014C563.014 215.762 563.633 216.462 564.512 217.113C565.391 217.732 566.628 218.318 568.223 218.871C569.818 219.424 571.852 219.978 574.326 220.531C578.656 221.508 582.22 222.68 585.02 224.047C587.819 225.414 589.902 227.09 591.27 229.076C592.637 231.062 593.32 233.471 593.32 236.303C593.32 238.614 592.832 240.73 591.855 242.65C590.911 244.571 589.528 246.231 587.705 247.631C585.915 248.998 583.766 250.072 581.26 250.854C578.786 251.602 576.003 251.977 572.91 251.977C568.255 251.977 564.316 251.146 561.094 249.486C557.871 247.826 555.43 245.678 553.77 243.041C552.109 240.404 551.279 237.621 551.279 234.691H560.361C560.492 237.165 561.208 239.135 562.51 240.6C563.812 242.032 565.407 243.057 567.295 243.676C569.183 244.262 571.055 244.555 572.91 244.555C575.384 244.555 577.451 244.229 579.111 243.578C580.804 242.927 582.09 242.032 582.969 240.893C583.848 239.753 584.287 238.451 584.287 236.986ZM632.305 198.168V205.102H603.74V198.168H632.305ZM613.408 185.326H622.441V237.914C622.441 239.704 622.718 241.055 623.271 241.967C623.825 242.878 624.541 243.48 625.42 243.773C626.299 244.066 627.243 244.213 628.252 244.213C629.001 244.213 629.782 244.148 630.596 244.018C631.442 243.855 632.077 243.725 632.5 243.627L632.549 251C631.833 251.228 630.889 251.439 629.717 251.635C628.577 251.863 627.194 251.977 625.566 251.977C623.353 251.977 621.318 251.537 619.463 250.658C617.607 249.779 616.126 248.314 615.02 246.264C613.945 244.18 613.408 241.381 613.408 237.865V185.326ZM656.934 206.469V251H647.9V198.168H656.689L656.934 206.469ZM673.438 197.875L673.389 206.273C672.64 206.111 671.924 206.013 671.24 205.98C670.589 205.915 669.84 205.883 668.994 205.883C666.911 205.883 665.072 206.208 663.477 206.859C661.882 207.51 660.531 208.422 659.424 209.594C658.317 210.766 657.438 212.165 656.787 213.793C656.169 215.388 655.762 217.146 655.566 219.066L653.027 220.531C653.027 217.341 653.337 214.346 653.955 211.547C654.606 208.747 655.599 206.273 656.934 204.125C658.268 201.944 659.961 200.251 662.012 199.047C664.095 197.81 666.569 197.191 669.434 197.191C670.085 197.191 670.833 197.273 671.68 197.436C672.526 197.566 673.112 197.712 673.438 197.875ZM719.111 238.793V198.168H728.193V251H719.551L719.111 238.793ZM720.82 227.66L724.58 227.562C724.58 231.078 724.206 234.333 723.457 237.328C722.741 240.29 721.569 242.862 719.941 245.043C718.314 247.224 716.182 248.933 713.545 250.17C710.908 251.374 707.702 251.977 703.926 251.977C701.354 251.977 698.994 251.602 696.846 250.854C694.73 250.105 692.907 248.949 691.377 247.387C689.847 245.824 688.659 243.79 687.812 241.283C686.999 238.777 686.592 235.766 686.592 232.25V198.168H695.625V232.348C695.625 234.724 695.885 236.693 696.406 238.256C696.96 239.786 697.692 241.007 698.604 241.918C699.548 242.797 700.589 243.415 701.729 243.773C702.9 244.132 704.105 244.311 705.342 244.311C709.183 244.311 712.227 243.578 714.473 242.113C716.719 240.616 718.33 238.614 719.307 236.107C720.316 233.568 720.82 230.753 720.82 227.66ZM769.082 198.168V205.102H740.518V198.168H769.082ZM750.186 185.326H759.219V237.914C759.219 239.704 759.495 241.055 760.049 241.967C760.602 242.878 761.318 243.48 762.197 243.773C763.076 244.066 764.02 244.213 765.029 244.213C765.778 244.213 766.559 244.148 767.373 244.018C768.219 243.855 768.854 243.725 769.277 243.627L769.326 251C768.61 251.228 767.666 251.439 766.494 251.635C765.355 251.863 763.971 251.977 762.344 251.977C760.13 251.977 758.096 251.537 756.24 250.658C754.385 249.779 752.904 248.314 751.797 246.264C750.723 244.18 750.186 241.381 750.186 237.865V185.326ZM817.002 238.793V198.168H826.084V251H817.441L817.002 238.793ZM818.711 227.66L822.471 227.562C822.471 231.078 822.096 234.333 821.348 237.328C820.632 240.29 819.46 242.862 817.832 245.043C816.204 247.224 814.072 248.933 811.436 250.17C808.799 251.374 805.592 251.977 801.816 251.977C799.245 251.977 796.885 251.602 794.736 250.854C792.62 250.105 790.798 248.949 789.268 247.387C787.738 245.824 786.549 243.79 785.703 241.283C784.889 238.777 784.482 235.766 784.482 232.25V198.168H793.516V232.348C793.516 234.724 793.776 236.693 794.297 238.256C794.85 239.786 795.583 241.007 796.494 241.918C797.438 242.797 798.48 243.415 799.619 243.773C800.791 244.132 801.995 244.311 803.232 244.311C807.074 244.311 810.117 243.578 812.363 242.113C814.609 240.616 816.221 238.614 817.197 236.107C818.206 233.568 818.711 230.753 818.711 227.66ZM853.887 206.469V251H844.854V198.168H853.643L853.887 206.469ZM870.391 197.875L870.342 206.273C869.593 206.111 868.877 206.013 868.193 205.98C867.542 205.915 866.794 205.883 865.947 205.883C863.864 205.883 862.025 206.208 860.43 206.859C858.835 207.51 857.484 208.422 856.377 209.594C855.27 210.766 854.391 212.165 853.74 213.793C853.122 215.388 852.715 217.146 852.52 219.066L849.98 220.531C849.98 217.341 850.29 214.346 850.908 211.547C851.559 208.747 852.552 206.273 853.887 204.125C855.221 201.944 856.914 200.251 858.965 199.047C861.048 197.81 863.522 197.191 866.387 197.191C867.038 197.191 867.786 197.273 868.633 197.436C869.479 197.566 870.065 197.712 870.391 197.875ZM912.939 241.967V214.77C912.939 212.686 912.516 210.88 911.67 209.35C910.856 207.787 909.619 206.583 907.959 205.736C906.299 204.89 904.248 204.467 901.807 204.467C899.528 204.467 897.526 204.857 895.801 205.639C894.108 206.42 892.773 207.445 891.797 208.715C890.853 209.984 890.381 211.352 890.381 212.816H881.348C881.348 210.928 881.836 209.057 882.812 207.201C883.789 205.346 885.189 203.669 887.012 202.172C888.867 200.642 891.081 199.438 893.652 198.559C896.257 197.647 899.154 197.191 902.344 197.191C906.185 197.191 909.57 197.842 912.5 199.145C915.462 200.447 917.773 202.416 919.434 205.053C921.126 207.657 921.973 210.928 921.973 214.867V239.477C921.973 241.234 922.119 243.106 922.412 245.092C922.738 247.077 923.21 248.786 923.828 250.219V251H914.404C913.949 249.958 913.59 248.575 913.33 246.85C913.07 245.092 912.939 243.464 912.939 241.967ZM914.502 218.969L914.6 225.316H905.469C902.897 225.316 900.602 225.528 898.584 225.951C896.566 226.342 894.873 226.944 893.506 227.758C892.139 228.572 891.097 229.597 890.381 230.834C889.665 232.038 889.307 233.454 889.307 235.082C889.307 236.742 889.681 238.256 890.43 239.623C891.178 240.99 892.301 242.081 893.799 242.895C895.329 243.676 897.201 244.066 899.414 244.066C902.181 244.066 904.622 243.48 906.738 242.309C908.854 241.137 910.531 239.704 911.768 238.012C913.037 236.319 913.721 234.675 913.818 233.08L917.676 237.426C917.448 238.793 916.829 240.307 915.82 241.967C914.811 243.627 913.46 245.222 911.768 246.752C910.107 248.249 908.122 249.503 905.811 250.512C903.532 251.488 900.96 251.977 898.096 251.977C894.515 251.977 891.374 251.277 888.672 249.877C886.003 248.477 883.919 246.605 882.422 244.262C880.957 241.885 880.225 239.232 880.225 236.303C880.225 233.471 880.778 230.98 881.885 228.832C882.992 226.651 884.587 224.844 886.67 223.412C888.753 221.947 891.26 220.84 894.189 220.092C897.119 219.343 900.391 218.969 904.004 218.969H914.502ZM1004.29 240.746V176H1013.37V251H1005.07L1004.29 240.746ZM968.74 225.17V224.145C968.74 220.108 969.229 216.446 970.205 213.158C971.214 209.838 972.63 206.99 974.453 204.613C976.309 202.237 978.506 200.414 981.045 199.145C983.617 197.842 986.481 197.191 989.639 197.191C992.959 197.191 995.856 197.777 998.33 198.949C1000.84 200.089 1002.95 201.765 1004.68 203.979C1006.44 206.16 1007.82 208.796 1008.83 211.889C1009.84 214.981 1010.54 218.48 1010.93 222.387V226.879C1010.57 230.753 1009.87 234.236 1008.83 237.328C1007.82 240.421 1006.44 243.057 1004.68 245.238C1002.95 247.419 1000.84 249.096 998.33 250.268C995.824 251.407 992.894 251.977 989.541 251.977C986.449 251.977 983.617 251.309 981.045 249.975C978.506 248.64 976.309 246.768 974.453 244.359C972.63 241.951 971.214 239.118 970.205 235.863C969.229 232.576 968.74 229.011 968.74 225.17ZM977.822 224.145V225.17C977.822 227.807 978.083 230.281 978.604 232.592C979.157 234.903 980.003 236.938 981.143 238.695C982.282 240.453 983.73 241.837 985.488 242.846C987.246 243.822 989.346 244.311 991.787 244.311C994.782 244.311 997.24 243.676 999.16 242.406C1001.11 241.137 1002.68 239.46 1003.85 237.377C1005.02 235.294 1005.93 233.031 1006.58 230.59V218.822C1006.19 217.032 1005.62 215.307 1004.87 213.646C1004.16 211.954 1003.21 210.456 1002.04 209.154C1000.9 207.82 999.486 206.762 997.793 205.98C996.133 205.199 994.163 204.809 991.885 204.809C989.411 204.809 987.279 205.329 985.488 206.371C983.73 207.38 982.282 208.78 981.143 210.57C980.003 212.328 979.157 214.379 978.604 216.723C978.083 219.034 977.822 221.508 977.822 224.145ZM1054.36 251.977C1050.68 251.977 1047.34 251.358 1044.35 250.121C1041.38 248.852 1038.83 247.077 1036.68 244.799C1034.56 242.52 1032.94 239.818 1031.8 236.693C1030.66 233.568 1030.09 230.15 1030.09 226.439V224.389C1030.09 220.092 1030.72 216.267 1031.99 212.914C1033.26 209.529 1034.99 206.664 1037.17 204.32C1039.35 201.977 1041.82 200.202 1044.59 198.998C1047.36 197.794 1050.22 197.191 1053.18 197.191C1056.96 197.191 1060.21 197.842 1062.95 199.145C1065.72 200.447 1067.98 202.27 1069.74 204.613C1071.49 206.924 1072.8 209.659 1073.64 212.816C1074.49 215.941 1074.91 219.359 1074.91 223.07V227.123H1035.46V219.75H1065.88V219.066C1065.75 216.723 1065.26 214.444 1064.41 212.23C1063.6 210.017 1062.3 208.194 1060.51 206.762C1058.72 205.329 1056.28 204.613 1053.18 204.613C1051.13 204.613 1049.24 205.053 1047.52 205.932C1045.79 206.778 1044.31 208.048 1043.08 209.74C1041.84 211.433 1040.88 213.5 1040.2 215.941C1039.51 218.383 1039.17 221.199 1039.17 224.389V226.439C1039.17 228.946 1039.51 231.306 1040.2 233.52C1040.91 235.701 1041.94 237.621 1043.27 239.281C1044.64 240.941 1046.28 242.243 1048.2 243.188C1050.16 244.132 1052.37 244.604 1054.84 244.604C1058.03 244.604 1060.74 243.952 1062.95 242.65C1065.16 241.348 1067.1 239.607 1068.76 237.426L1074.23 241.771C1073.09 243.497 1071.64 245.141 1069.88 246.703C1068.12 248.266 1065.96 249.535 1063.39 250.512C1060.85 251.488 1057.84 251.977 1054.36 251.977ZM1121.63 179.906H1145.17C1150.5 179.906 1155.01 180.72 1158.69 182.348C1162.4 183.975 1165.22 186.384 1167.14 189.574C1169.09 192.732 1170.07 196.622 1170.07 201.244C1170.07 204.499 1169.4 207.478 1168.07 210.18C1166.76 212.849 1164.88 215.128 1162.4 217.016C1159.96 218.871 1157.03 220.255 1153.61 221.166L1150.98 222.191H1128.86L1128.76 214.525H1145.46C1148.84 214.525 1151.66 213.939 1153.91 212.768C1156.15 211.563 1157.85 209.952 1158.98 207.934C1160.12 205.915 1160.69 203.686 1160.69 201.244C1160.69 198.51 1160.16 196.117 1159.08 194.066C1158.01 192.016 1156.32 190.437 1154 189.33C1151.73 188.191 1148.78 187.621 1145.17 187.621H1131.05V251H1121.63V179.906ZM1163.18 251L1145.9 218.773L1155.71 218.725L1173.24 250.414V251H1163.18ZM1208.81 251.977C1205.13 251.977 1201.79 251.358 1198.8 250.121C1195.84 248.852 1193.28 247.077 1191.13 244.799C1189.02 242.52 1187.39 239.818 1186.25 236.693C1185.11 233.568 1184.54 230.15 1184.54 226.439V224.389C1184.54 220.092 1185.18 216.267 1186.45 212.914C1187.71 209.529 1189.44 206.664 1191.62 204.32C1193.8 201.977 1196.28 200.202 1199.04 198.998C1201.81 197.794 1204.67 197.191 1207.64 197.191C1211.41 197.191 1214.67 197.842 1217.4 199.145C1220.17 200.447 1222.43 202.27 1224.19 204.613C1225.95 206.924 1227.25 209.659 1228.1 212.816C1228.94 215.941 1229.37 219.359 1229.37 223.07V227.123H1189.91V219.75H1220.33V219.066C1220.2 216.723 1219.71 214.444 1218.87 212.23C1218.05 210.017 1216.75 208.194 1214.96 206.762C1213.17 205.329 1210.73 204.613 1207.64 204.613C1205.59 204.613 1203.7 205.053 1201.97 205.932C1200.25 206.778 1198.77 208.048 1197.53 209.74C1196.29 211.433 1195.33 213.5 1194.65 215.941C1193.96 218.383 1193.62 221.199 1193.62 224.389V226.439C1193.62 228.946 1193.96 231.306 1194.65 233.52C1195.36 235.701 1196.39 237.621 1197.72 239.281C1199.09 240.941 1200.74 242.243 1202.66 243.188C1204.61 244.132 1206.82 244.604 1209.3 244.604C1212.49 244.604 1215.19 243.952 1217.4 242.65C1219.62 241.348 1221.55 239.607 1223.21 237.426L1228.68 241.771C1227.54 243.497 1226.09 245.141 1224.34 246.703C1222.58 248.266 1220.41 249.535 1217.84 250.512C1215.3 251.488 1212.29 251.977 1208.81 251.977ZM1278.21 240.746V176H1287.29V251H1278.99L1278.21 240.746ZM1242.67 225.17V224.145C1242.67 220.108 1243.15 216.446 1244.13 213.158C1245.14 209.838 1246.56 206.99 1248.38 204.613C1250.23 202.237 1252.43 200.414 1254.97 199.145C1257.54 197.842 1260.41 197.191 1263.56 197.191C1266.88 197.191 1269.78 197.777 1272.26 198.949C1274.76 200.089 1276.88 201.765 1278.6 203.979C1280.36 206.16 1281.74 208.796 1282.75 211.889C1283.76 214.981 1284.46 218.48 1284.85 222.387V226.879C1284.5 230.753 1283.8 234.236 1282.75 237.328C1281.74 240.421 1280.36 243.057 1278.6 245.238C1276.88 247.419 1274.76 249.096 1272.26 250.268C1269.75 251.407 1266.82 251.977 1263.47 251.977C1260.37 251.977 1257.54 251.309 1254.97 249.975C1252.43 248.64 1250.23 246.768 1248.38 244.359C1246.56 241.951 1245.14 239.118 1244.13 235.863C1243.15 232.576 1242.67 229.011 1242.67 225.17ZM1251.75 224.145V225.17C1251.75 227.807 1252.01 230.281 1252.53 232.592C1253.08 234.903 1253.93 236.938 1255.07 238.695C1256.21 240.453 1257.66 241.837 1259.41 242.846C1261.17 243.822 1263.27 244.311 1265.71 244.311C1268.71 244.311 1271.17 243.676 1273.09 242.406C1275.04 241.137 1276.6 239.46 1277.77 237.377C1278.95 235.294 1279.86 233.031 1280.51 230.59V218.822C1280.12 217.032 1279.55 215.307 1278.8 213.646C1278.08 211.954 1277.14 210.456 1275.97 209.154C1274.83 207.82 1273.41 206.762 1271.72 205.98C1270.06 205.199 1268.09 204.809 1265.81 204.809C1263.34 204.809 1261.2 205.329 1259.41 206.371C1257.66 207.38 1256.21 208.78 1255.07 210.57C1253.93 212.328 1253.08 214.379 1252.53 216.723C1252.01 219.034 1251.75 221.508 1251.75 224.145ZM1328.28 251.977C1324.6 251.977 1321.27 251.358 1318.27 250.121C1315.31 248.852 1312.75 247.077 1310.61 244.799C1308.49 242.52 1306.86 239.818 1305.72 236.693C1304.58 233.568 1304.01 230.15 1304.01 226.439V224.389C1304.01 220.092 1304.65 216.267 1305.92 212.914C1307.19 209.529 1308.91 206.664 1311.09 204.32C1313.27 201.977 1315.75 200.202 1318.52 198.998C1321.28 197.794 1324.15 197.191 1327.11 197.191C1330.89 197.191 1334.14 197.842 1336.88 199.145C1339.64 200.447 1341.9 202.27 1343.66 204.613C1345.42 206.924 1346.72 209.659 1347.57 212.816C1348.41 215.941 1348.84 219.359 1348.84 223.07V227.123H1309.38V219.75H1339.8V219.066C1339.67 216.723 1339.19 214.444 1338.34 212.23C1337.53 210.017 1336.22 208.194 1334.43 206.762C1332.64 205.329 1330.2 204.613 1327.11 204.613C1325.06 204.613 1323.17 205.053 1321.45 205.932C1319.72 206.778 1318.24 208.048 1317 209.74C1315.76 211.433 1314.8 213.5 1314.12 215.941C1313.44 218.383 1313.1 221.199 1313.1 224.389V226.439C1313.1 228.946 1313.44 231.306 1314.12 233.52C1314.84 235.701 1315.86 237.621 1317.2 239.281C1318.56 240.941 1320.21 242.243 1322.13 243.188C1324.08 244.132 1326.3 244.604 1328.77 244.604C1331.96 244.604 1334.66 243.952 1336.88 242.65C1339.09 241.348 1341.03 239.607 1342.69 237.426L1348.15 241.771C1347.01 243.497 1345.57 245.141 1343.81 246.703C1342.05 248.266 1339.89 249.535 1337.31 250.512C1334.78 251.488 1331.76 251.977 1328.28 251.977ZM1395.15 236.986C1395.15 235.684 1394.85 234.48 1394.27 233.373C1393.71 232.234 1392.56 231.208 1390.8 230.297C1389.08 229.353 1386.47 228.539 1382.99 227.855C1380.06 227.237 1377.41 226.505 1375.03 225.658C1372.69 224.812 1370.68 223.786 1369.02 222.582C1367.4 221.378 1366.14 219.962 1365.26 218.334C1364.38 216.706 1363.95 214.802 1363.95 212.621C1363.95 210.538 1364.4 208.568 1365.31 206.713C1366.26 204.857 1367.57 203.214 1369.27 201.781C1370.99 200.349 1373.06 199.226 1375.47 198.412C1377.88 197.598 1380.56 197.191 1383.53 197.191C1387.76 197.191 1391.37 197.94 1394.37 199.438C1397.36 200.935 1399.65 202.937 1401.25 205.443C1402.85 207.917 1403.64 210.668 1403.64 213.695H1394.61C1394.61 212.23 1394.17 210.814 1393.29 209.447C1392.44 208.048 1391.19 206.892 1389.53 205.98C1387.9 205.069 1385.9 204.613 1383.53 204.613C1381.02 204.613 1378.98 205.004 1377.42 205.785C1375.89 206.534 1374.77 207.494 1374.05 208.666C1373.37 209.838 1373.03 211.075 1373.03 212.377C1373.03 213.354 1373.19 214.232 1373.52 215.014C1373.87 215.762 1374.49 216.462 1375.37 217.113C1376.25 217.732 1377.49 218.318 1379.08 218.871C1380.68 219.424 1382.71 219.978 1385.19 220.531C1389.51 221.508 1393.08 222.68 1395.88 224.047C1398.68 225.414 1400.76 227.09 1402.13 229.076C1403.5 231.062 1404.18 233.471 1404.18 236.303C1404.18 238.614 1403.69 240.73 1402.71 242.65C1401.77 244.571 1400.39 246.231 1398.56 247.631C1396.77 248.998 1394.63 250.072 1392.12 250.854C1389.65 251.602 1386.86 251.977 1383.77 251.977C1379.11 251.977 1375.18 251.146 1371.95 249.486C1368.73 247.826 1366.29 245.678 1364.63 243.041C1362.97 240.404 1362.14 237.621 1362.14 234.691H1371.22C1371.35 237.165 1372.07 239.135 1373.37 240.6C1374.67 242.032 1376.27 243.057 1378.15 243.676C1380.04 244.262 1381.91 244.555 1383.77 244.555C1386.24 244.555 1388.31 244.229 1389.97 243.578C1391.66 242.927 1392.95 242.032 1393.83 240.893C1394.71 239.753 1395.15 238.451 1395.15 236.986Z" fill="white"/>
<defs>
<clipPath id="clip0_25_346">
<rect width="246" height="251" fill="white"/>
</clipPath>
</defs>
</svg>
