<svg width="512" height="512" viewBox="0 0 512 512" fill="none" xmlns="http://www.w3.org/2000/svg">
<g clip-path="url(#clip0_104_95)">
<path d="M88.954 -0.634902C90.4569 -0.640671 91.9599 -0.648617 93.4628 -0.658538C97.5712 -0.679327 101.679 -0.669133 105.788 -0.653607C110.227 -0.642265 114.666 -0.65977 119.105 -0.673507C127.792 -0.695713 136.48 -0.690949 145.167 -0.676443C152.229 -0.665141 159.291 -0.663625 166.354 -0.669062C167.36 -0.669829 168.366 -0.670595 169.402 -0.671384C171.446 -0.672983 173.49 -0.674604 175.533 -0.676247C194.688 -0.690497 213.842 -0.674124 232.996 -0.647245C249.423 -0.624907 265.85 -0.628788 282.277 -0.651839C301.364 -0.678611 320.451 -0.689124 339.538 -0.673778C341.574 -0.672185 343.61 -0.670613 345.646 -0.669062C346.648 -0.668291 347.65 -0.66752 348.682 -0.666725C355.734 -0.662412 362.785 -0.669686 369.837 -0.68146C378.433 -0.695499 387.029 -0.691657 395.626 -0.665056C400.01 -0.651936 404.394 -0.646735 408.778 -0.663302C412.795 -0.678253 416.811 -0.669931 420.828 -0.643414C422.277 -0.637851 423.727 -0.640622 425.176 -0.652793C435.85 -0.735521 443.451 0.98793 451.687 7.93752C460.019 16.9979 464.343 31.1118 469.192 42.2925C471.148 46.8004 473.117 51.3026 475.086 55.8047C475.49 56.7299 475.895 57.6551 476.312 58.6084C480.244 67.5857 484.257 76.5257 488.29 85.4582C489.43 87.9841 490.569 90.5107 491.706 93.0376C494.681 99.6423 497.656 106.247 500.653 112.841C501.922 115.641 503.179 118.446 504.437 121.25C504.868 122.188 505.298 123.127 505.742 124.094C512.281 138.756 512.475 152.171 512.469 168.008C512.476 170.343 512.483 172.679 512.492 175.014C512.505 179.891 512.507 184.767 512.501 189.644C512.495 195.876 512.526 202.107 512.566 208.338C512.592 213.155 512.595 217.971 512.591 222.787C512.593 225.084 512.602 227.382 512.62 229.679C512.643 232.895 512.633 236.109 512.615 239.325C512.635 240.729 512.635 240.729 512.655 242.162C512.577 248.332 511.184 252.417 507.974 257.7C506.736 260.624 507.058 262.002 508 265C508.64 266.42 509.317 267.823 510.029 269.208C512.27 274.122 512.574 278.33 512.533 283.676C512.542 284.597 512.551 285.519 512.559 286.468C512.582 289.488 512.575 292.507 512.566 295.527C512.572 297.643 512.578 299.758 512.585 301.874C512.595 306.298 512.591 310.721 512.576 315.145C512.559 320.795 512.583 326.444 512.618 332.094C512.64 336.46 512.638 340.826 512.63 345.192C512.629 347.275 512.636 349.357 512.651 351.439C512.77 371.201 512.77 371.201 507.974 378.086C506.562 380.861 507.051 382.031 508 385C508.672 386.405 509.348 387.808 510.028 389.21C512.264 394.111 512.58 398.31 512.549 403.644C512.565 405.021 512.565 405.021 512.58 406.427C512.608 409.437 512.606 412.447 512.601 415.457C512.609 417.568 512.618 419.679 512.627 421.789C512.642 426.205 512.642 430.62 512.631 435.035C512.62 440.668 512.654 446.298 512.7 451.93C512.73 456.288 512.731 460.645 512.725 465.002C512.726 467.078 512.736 469.153 512.757 471.228C512.863 483.679 512.877 493.964 504.376 503.897C502.673 505.513 500.963 506.716 499 508C498.449 508.363 497.898 508.727 497.331 509.101C489.284 513.459 480.109 512.561 471.231 512.521C469.302 512.527 467.372 512.535 465.442 512.545C460.15 512.565 454.858 512.561 449.565 512.552C443.853 512.547 438.142 512.565 432.43 512.58C421.243 512.606 410.057 512.609 398.871 512.605C389.778 512.601 380.685 512.605 371.592 512.613C370.298 512.614 369.004 512.616 367.67 512.617C365.041 512.619 362.412 512.622 359.783 512.624C342.13 512.64 324.477 512.647 306.824 512.639C305.788 512.639 305.788 512.639 304.732 512.638C301.235 512.637 297.738 512.635 294.24 512.633C293.198 512.633 293.198 512.633 292.135 512.632C290.731 512.632 289.326 512.631 287.921 512.63C266.068 512.62 244.215 512.635 222.362 512.672C197.798 512.714 173.234 512.735 148.67 512.727C135.669 512.723 122.667 512.728 109.665 512.757C98.5964 512.78 87.5277 512.783 76.4588 512.759C70.8127 512.747 65.167 512.745 59.5209 512.769C54.3484 512.791 49.1768 512.785 44.0043 512.757C42.1369 512.751 40.2695 512.756 38.4022 512.772C26.8878 512.864 17.141 512.281 8.01952 504.258C1.54135 497.562 -0.60319 489.389 -0.533568 480.324C-0.542183 479.403 -0.550799 478.481 -0.559675 477.532C-0.582216 474.512 -0.575618 471.493 -0.566527 468.473C-0.571768 466.357 -0.578046 464.242 -0.58531 462.126C-0.595693 457.702 -0.591184 453.279 -0.576536 448.855C-0.559354 443.205 -0.582849 437.556 -0.618025 431.906C-0.640057 427.54 -0.638546 423.174 -0.630263 418.808C-0.629446 416.726 -0.636245 414.643 -0.65103 412.561C-0.769854 392.799 -0.769856 392.799 4.0259 385.914C5.43771 383.139 4.94897 381.969 3.99988 379C3.32772 377.595 2.65085 376.193 1.97072 374.792C-0.270693 369.878 -0.574631 365.671 -0.533568 360.324C-0.542183 359.403 -0.550799 358.481 -0.559675 357.532C-0.582216 354.512 -0.575618 351.493 -0.566527 348.473C-0.571768 346.357 -0.578046 344.242 -0.58531 342.126C-0.595693 337.702 -0.591184 333.279 -0.576536 328.855C-0.559354 323.205 -0.582849 317.556 -0.618025 311.906C-0.640057 307.54 -0.638546 303.174 -0.630263 298.808C-0.629446 296.726 -0.636245 294.643 -0.65103 292.561C-0.769854 272.799 -0.769856 272.799 4.0259 265.914C5.43771 263.139 4.94897 261.969 3.99988 259C3.32595 257.614 2.6489 256.229 1.96973 254.846C-0.391326 249.666 -0.566346 245.099 -0.517699 239.47C-0.524708 238.457 -0.531717 237.445 -0.538939 236.401C-0.556445 233.076 -0.544917 229.751 -0.53137 226.426C-0.534068 224.096 -0.537954 221.766 -0.542967 219.435C-0.548853 214.557 -0.540332 209.68 -0.521605 204.802C-0.49888 198.583 -0.511904 192.365 -0.535895 186.146C-0.550431 181.333 -0.54571 176.521 -0.535383 171.709C-0.532734 169.418 -0.535921 167.127 -0.545302 164.836C-0.584431 152.589 -0.504376 141.552 3.99988 130C4.27683 129.259 4.55377 128.518 4.83911 127.755C5.56354 125.926 6.37321 124.131 7.18738 122.34C7.48222 121.684 7.77706 121.027 8.08083 120.351C9.04523 118.209 10.0226 116.074 10.9999 113.938C11.7007 112.386 12.4005 110.834 13.0992 109.282C14.6 105.949 16.1051 102.619 17.6127 99.2896C21.378 90.9613 25.0781 82.604 28.7851 74.2497C30.0604 71.3794 31.3398 68.511 32.6202 65.6431C36.579 56.7681 40.496 47.8808 44.2889 38.9336C45.2784 36.6195 46.2694 34.306 47.2608 31.9928C48.1527 29.894 49.023 27.7872 49.8927 25.6792C54.5132 14.7373 60.089 6.3784 70.9513 1.07965C76.8012 -0.992065 82.8197 -0.686417 88.954 -0.634902Z" fill="#003366"/>
<path d="M20 152C173.169 152 326.339 152 483.996 152C488.415 152 492 155.593 492 160.011C491.997 244.005 491.91 244.179 489 250C485.018 252.456 480.797 252.284 476.246 252.26C475.468 252.264 474.691 252.268 473.89 252.272C471.275 252.282 468.66 252.278 466.045 252.274C464.155 252.279 462.265 252.284 460.375 252.29C455.174 252.304 449.973 252.306 444.772 252.305C439.166 252.307 433.56 252.32 427.954 252.332C415.694 252.354 403.434 252.362 391.174 252.367C383.523 252.371 375.872 252.377 368.221 252.384C347.048 252.404 325.874 252.421 304.701 252.423C303.685 252.423 303.685 252.423 302.649 252.424C299.904 252.424 297.16 252.424 294.416 252.425C292.35 252.425 290.284 252.425 288.219 252.426C287.195 252.426 287.195 252.426 286.15 252.426C264.694 252.429 243.238 252.451 221.781 252.487C197.682 252.528 173.583 252.551 149.484 252.552C136.721 252.552 123.958 252.561 111.196 252.59C100.332 252.614 89.468 252.622 78.6042 252.607C73.0582 252.599 67.5126 252.6 61.9667 252.623C56.8938 252.643 51.8215 252.641 46.7486 252.62C44.9095 252.617 43.0704 252.622 41.2313 252.636C38.7382 252.654 36.2471 252.641 33.754 252.621C33.0338 252.633 32.3136 252.646 31.5715 252.659C27.7248 252.591 23.5361 252.443 20.5 250C20.5 221.948 20 184.566 20 152Z" fill="#FBFBFF"/>
<path d="M31.0455 391.863C32.1411 391.866 32.1411 391.866 33.259 391.869C34.4179 391.865 34.4179 391.865 35.6003 391.862C38.2226 391.857 40.8449 391.858 43.4672 391.86C45.353 391.857 47.2387 391.854 49.1245 391.851C54.3326 391.842 59.5406 391.841 64.7487 391.84C70.3555 391.838 75.9624 391.831 81.5692 391.824C93.8419 391.81 106.115 391.804 118.387 391.8C126.045 391.797 133.703 391.793 141.361 391.788C162.547 391.776 183.733 391.766 204.919 391.762C206.289 391.762 207.66 391.762 209.031 391.762C210.405 391.762 211.779 391.761 213.154 391.761C215.911 391.761 218.668 391.76 221.424 391.76C222.108 391.76 222.792 391.76 223.496 391.759C245.661 391.756 267.826 391.74 289.992 391.717C313.414 391.692 336.836 391.678 360.259 391.677C373.031 391.676 385.804 391.67 398.576 391.652C409.452 391.637 420.328 391.632 431.204 391.64C436.756 391.644 442.308 391.643 447.86 391.629C452.94 391.616 458.019 391.617 463.099 391.63C464.94 391.631 466.78 391.628 468.621 391.62C471.118 391.609 473.615 391.616 476.112 391.628C476.83 391.62 477.549 391.613 478.29 391.605C482.913 391.653 486.09 392.528 490 395C492.517 398.775 492.288 401.767 492.275 406.14C492.282 407.384 492.282 407.384 492.29 408.654C492.304 411.401 492.303 414.148 492.301 416.895C492.305 418.804 492.309 420.713 492.314 422.623C492.321 426.629 492.321 430.634 492.316 434.64C492.31 439.768 492.327 444.896 492.35 450.024C492.365 453.969 492.366 457.914 492.362 461.86C492.363 463.75 492.368 465.64 492.378 467.53C492.391 470.178 492.384 472.825 492.372 475.472C492.38 476.25 492.388 477.028 492.395 477.829C492.349 482.614 491.738 486.034 489 490C484.85 492.235 480.851 492.285 476.246 492.26C475.468 492.264 474.691 492.268 473.89 492.272C471.275 492.282 468.66 492.278 466.045 492.274C464.155 492.279 462.265 492.284 460.375 492.29C455.174 492.304 449.973 492.306 444.772 492.305C439.166 492.307 433.56 492.32 427.954 492.332C415.694 492.354 403.434 492.362 391.174 492.367C383.523 492.371 375.872 492.377 368.221 492.384C347.048 492.404 325.874 492.42 304.701 492.423C303.685 492.423 303.685 492.423 302.649 492.424C299.904 492.424 297.16 492.424 294.416 492.425C292.35 492.425 290.284 492.425 288.219 492.426C287.195 492.426 287.195 492.426 286.15 492.426C264.694 492.429 243.238 492.451 221.781 492.487C197.682 492.528 173.583 492.551 149.484 492.552C136.721 492.552 123.958 492.561 111.195 492.59C100.332 492.614 89.4679 492.622 78.6041 492.607C73.0581 492.599 67.5125 492.6 61.9666 492.623C56.8937 492.643 51.8214 492.641 46.7485 492.62C44.9094 492.617 43.0703 492.622 41.2312 492.636C38.7381 492.654 36.247 492.641 33.7539 492.621C33.0337 492.633 32.3135 492.646 31.5714 492.659C27.7247 492.591 26.1139 492.092 23.0778 489.649C19.6144 485.234 19.8362 481.22 19.807 475.844C19.7989 475.013 19.7907 474.182 19.7823 473.325C19.7574 470.574 19.7409 467.822 19.7265 465.07C19.7211 464.13 19.7158 463.191 19.7103 462.222C19.6836 457.25 19.6642 452.278 19.6498 447.305C19.6331 442.168 19.5884 437.031 19.5374 431.894C19.5038 427.945 19.4922 423.995 19.4866 420.045C19.4799 418.151 19.4646 416.258 19.4407 414.364C19.4091 411.714 19.409 409.065 19.4164 406.415C19.4 405.633 19.3836 404.852 19.3667 404.046C19.4136 399.949 19.8093 398.228 22.4739 395.037C23.3075 394.365 24.1411 393.692 24.9999 393C26.6901 391.31 28.7894 391.874 31.0455 391.863Z" fill="#FBFBFF"/>
<path d="M31.0455 271.863C32.1411 271.866 32.1411 271.866 33.259 271.869C34.4179 271.865 34.4179 271.865 35.6003 271.862C38.2226 271.857 40.8449 271.858 43.4672 271.86C45.353 271.857 47.2387 271.854 49.1245 271.851C54.3326 271.842 59.5406 271.841 64.7487 271.84C70.3555 271.838 75.9624 271.831 81.5692 271.824C93.8419 271.81 106.115 271.804 118.387 271.8C126.045 271.797 133.703 271.793 141.361 271.788C162.547 271.776 183.733 271.766 204.919 271.762C206.289 271.762 207.66 271.762 209.031 271.762C210.405 271.762 211.779 271.761 213.154 271.761C215.911 271.761 218.668 271.76 221.424 271.76C222.108 271.76 222.792 271.76 223.496 271.759C245.661 271.756 267.826 271.74 289.992 271.717C313.414 271.692 336.836 271.678 360.259 271.677C373.031 271.676 385.804 271.67 398.576 271.652C409.452 271.637 420.328 271.632 431.204 271.64C436.756 271.644 442.308 271.643 447.86 271.629C452.94 271.616 458.019 271.617 463.099 271.63C464.94 271.631 466.78 271.628 468.621 271.62C471.118 271.609 473.615 271.616 476.112 271.628C476.83 271.62 477.549 271.613 478.29 271.605C482.913 271.653 486.09 272.528 490 275C492.517 278.775 492.288 281.767 492.275 286.14C492.282 287.384 492.282 287.384 492.29 288.654C492.304 291.401 492.303 294.148 492.301 296.895C492.305 298.804 492.309 300.713 492.314 302.623C492.321 306.629 492.321 310.634 492.316 314.64C492.31 319.768 492.327 324.896 492.35 330.024C492.365 333.969 492.366 337.914 492.362 341.86C492.363 343.75 492.368 345.64 492.378 347.53C492.391 350.178 492.384 352.825 492.372 355.472C492.38 356.25 492.388 357.028 492.395 357.829C492.349 362.614 491.738 366.034 489 370C484.85 372.235 480.851 372.285 476.246 372.26C475.468 372.264 474.691 372.268 473.89 372.272C471.275 372.282 468.66 372.278 466.045 372.274C464.155 372.279 462.265 372.284 460.375 372.29C455.174 372.304 449.973 372.306 444.772 372.305C439.166 372.307 433.56 372.32 427.954 372.332C415.694 372.354 403.434 372.362 391.174 372.367C383.523 372.371 375.872 372.377 368.221 372.384C347.048 372.404 325.874 372.42 304.701 372.423C303.685 372.423 303.685 372.423 302.649 372.424C299.904 372.424 297.16 372.424 294.416 372.425C292.35 372.425 290.284 372.425 288.219 372.426C287.195 372.426 287.195 372.426 286.15 372.426C264.694 372.429 243.238 372.451 221.781 372.487C197.682 372.528 173.583 372.551 149.484 372.552C136.721 372.552 123.958 372.561 111.195 372.59C100.332 372.614 89.4679 372.622 78.6041 372.607C73.0581 372.599 67.5125 372.6 61.9666 372.623C56.8937 372.643 51.8214 372.641 46.7485 372.62C44.9094 372.617 43.0703 372.622 41.2312 372.636C38.7381 372.654 36.247 372.641 33.7539 372.621C33.0337 372.633 32.3135 372.646 31.5714 372.659C27.7247 372.591 26.1139 372.092 23.0778 369.649C19.6144 365.234 19.8362 361.22 19.807 355.844C19.7989 355.013 19.7907 354.182 19.7823 353.325C19.7574 350.574 19.7409 347.822 19.7265 345.07C19.7211 344.13 19.7158 343.191 19.7103 342.222C19.6836 337.25 19.6642 332.278 19.6498 327.305C19.6331 322.168 19.5884 317.031 19.5374 311.894C19.5038 307.945 19.4922 303.995 19.4866 300.045C19.4799 298.151 19.4646 296.258 19.4407 294.364C19.4091 291.714 19.409 289.065 19.4164 286.415C19.4 285.633 19.3836 284.852 19.3667 284.046C19.4136 279.949 19.8093 278.228 22.4739 275.037C23.3075 274.365 24.1411 273.692 24.9999 273C26.6901 271.31 28.7894 271.874 31.0455 271.863Z" fill="#FBFBFF"/>
<path d="M85.1142 19.4994C86.3507 19.4896 87.5872 19.4798 88.8612 19.4697C90.2304 19.479 91.5997 19.4887 92.9689 19.4988C94.4257 19.4949 95.8825 19.4892 97.3393 19.482C101.343 19.4672 105.347 19.4774 109.351 19.4917C113.668 19.5028 117.986 19.4909 122.304 19.4819C130.763 19.4679 139.221 19.4755 147.68 19.4906C157.526 19.5074 167.373 19.5042 177.22 19.5005C194.787 19.4946 212.354 19.5088 229.92 19.5334C246.973 19.5573 264.026 19.5644 281.08 19.5539C299.641 19.5425 318.203 19.5406 336.764 19.555C338.743 19.5566 340.721 19.5581 342.7 19.5596C343.674 19.5603 344.647 19.5611 345.65 19.5619C352.517 19.5666 359.383 19.5648 366.25 19.5605C374.616 19.5556 382.982 19.5616 391.348 19.5814C395.618 19.5913 399.888 19.5964 404.158 19.5885C408.065 19.5815 411.972 19.5882 415.879 19.6061C417.294 19.6102 418.709 19.6092 420.124 19.6026C422.045 19.5945 423.965 19.6066 425.886 19.6197C426.954 19.6207 428.021 19.6217 429.121 19.6228C433.151 20.1508 435.822 21.7457 438.588 24.6904C440.591 27.9671 442.088 31.4311 443.598 34.9531C443.944 35.7489 444.291 36.5448 444.647 37.3647C445.397 39.0884 446.145 40.8131 446.891 42.5386C448.896 47.1791 450.919 51.812 452.941 56.4453C453.358 57.401 453.775 58.3567 454.204 59.3414C458.556 69.3055 463.021 79.2173 467.5 89.125C472.429 100.039 477.345 110.957 482.125 121.937C482.533 122.873 482.941 123.808 483.361 124.772C486 130.871 486 130.871 486 132C334.2 132 182.4 132 26 132C34.0217 112.519 34.0217 112.519 36.9883 106.031C37.3293 105.278 37.6703 104.525 38.0216 103.749C38.7445 102.153 39.4686 100.557 40.1938 98.9617C47.9707 81.8489 55.5758 64.6645 63.0735 47.4277C65.0275 42.9421 67.0024 38.4663 69 34C69.4761 32.9323 69.9523 31.8646 70.4429 30.7646C70.8575 29.8807 71.2721 28.9967 71.6992 28.0859C72.0314 27.3723 72.3636 26.6586 72.7058 25.9233C75.9755 21.0642 79.3739 19.5 85.1142 19.4994Z" fill="#FBFBFF"/>
<path d="M438 416C445.162 420.6 449.351 426.957 452 435C453.434 444.357 451.74 452.365 446.527 460.219C441.626 466.429 435.403 469.532 428 472C418.319 473.1 411.058 471.529 403 466C396.399 460.423 392.782 453.404 391.551 444.895C391.046 435.511 393.716 427.975 399.863 420.836C410.612 410.712 424.983 408.52 438 416Z" fill="#003366"/>
<path d="M438 296C445.162 300.6 449.351 306.957 452 315C453.434 324.357 451.74 332.365 446.527 340.219C441.626 346.429 435.403 349.532 428 352C418.319 353.1 411.058 351.529 403 346C396.399 340.423 392.782 333.404 391.551 324.895C391.046 315.511 393.716 307.975 399.863 300.836C410.612 290.712 424.983 288.52 438 296Z" fill="#003366"/>
<path d="M438 176C445.162 180.6 449.351 186.957 452 195C453.434 204.357 451.74 212.365 446.527 220.219C441.626 226.429 435.403 229.532 428 232C418.319 233.1 411.058 231.529 403 226C396.399 220.423 392.782 213.404 391.551 204.895C391.046 195.511 393.716 187.975 399.863 180.836C410.612 170.712 424.983 168.52 438 176Z" fill="#003366"/>
<path d="M152.284 431.839C153.146 431.829 154.007 431.82 154.894 431.81C155.823 431.806 156.751 431.801 157.707 431.797C158.665 431.791 159.623 431.785 160.61 431.78C162.639 431.77 164.667 431.764 166.696 431.76C169.79 431.75 172.884 431.719 175.978 431.688C177.95 431.681 179.922 431.676 181.894 431.672C182.817 431.66 183.739 431.647 184.689 431.634C189.872 431.652 193.534 432.057 198 435C199.972 438.086 200.004 439.885 199.875 443.562C198.917 447.325 198.046 448.671 195 451C192.243 451.919 190.561 452.135 187.716 452.161C186.854 452.171 185.993 452.18 185.105 452.19C184.177 452.194 183.249 452.199 182.293 452.203C180.856 452.212 180.856 452.212 179.389 452.22C177.361 452.23 175.333 452.236 173.304 452.24C170.21 452.25 167.116 452.281 164.021 452.312C162.049 452.319 160.077 452.324 158.105 452.328C157.183 452.34 156.261 452.353 155.311 452.366C150.127 452.348 146.466 451.943 142 449C140.028 445.914 139.996 444.115 140.125 440.438C141.083 436.675 141.954 435.329 145 433C147.757 432.081 149.439 431.865 152.284 431.839Z" fill="#003366"/>
<path d="M72.2844 431.839C73.1457 431.829 74.007 431.82 74.8945 431.81C75.8226 431.806 76.7507 431.801 77.707 431.797C78.6651 431.791 79.6233 431.785 80.6105 431.78C82.6388 431.77 84.6672 431.764 86.6955 431.76C89.7901 431.75 92.884 431.719 95.9785 431.688C97.9505 431.681 99.9225 431.676 101.894 431.672C102.817 431.66 103.739 431.647 104.689 431.634C109.872 431.652 113.534 432.057 118 435C119.972 438.086 120.004 439.885 119.875 443.562C118.917 447.325 118.046 448.671 115 451C112.243 451.919 110.561 452.135 107.716 452.161C106.854 452.171 105.993 452.18 105.105 452.19C104.177 452.194 103.249 452.199 102.293 452.203C100.856 452.212 100.856 452.212 99.3894 452.22C97.3611 452.23 95.3328 452.236 93.3044 452.24C90.2098 452.25 87.1159 452.281 84.0215 452.312C82.0495 452.319 80.0774 452.324 78.1054 452.328C77.1834 452.34 76.2613 452.353 75.3113 452.366C70.1275 452.348 66.4658 451.943 62 449C60.0281 445.914 59.9959 444.115 60.125 440.438C61.0826 436.675 61.954 435.329 65 433C67.7566 432.081 69.4389 431.865 72.2844 431.839Z" fill="#003366"/>
<path d="M152.284 311.839C153.146 311.829 154.007 311.82 154.894 311.81C155.823 311.806 156.751 311.801 157.707 311.797C158.665 311.791 159.623 311.785 160.61 311.78C162.639 311.77 164.667 311.764 166.696 311.76C169.79 311.75 172.884 311.719 175.978 311.688C177.95 311.681 179.922 311.676 181.894 311.672C182.817 311.66 183.739 311.647 184.689 311.634C189.872 311.652 193.534 312.057 198 315C199.972 318.086 200.004 319.885 199.875 323.562C198.917 327.325 198.046 328.671 195 331C192.243 331.919 190.561 332.135 187.716 332.161C186.854 332.171 185.993 332.18 185.105 332.19C184.177 332.194 183.249 332.199 182.293 332.203C180.856 332.212 180.856 332.212 179.389 332.22C177.361 332.23 175.333 332.236 173.304 332.24C170.21 332.25 167.116 332.281 164.021 332.312C162.049 332.319 160.077 332.324 158.105 332.328C157.183 332.34 156.261 332.353 155.311 332.366C150.127 332.348 146.466 331.943 142 329C140.028 325.914 139.996 324.115 140.125 320.438C141.083 316.675 141.954 315.329 145 313C147.757 312.081 149.439 311.865 152.284 311.839Z" fill="#003366"/>
<path d="M72.2844 311.839C73.1457 311.829 74.007 311.82 74.8945 311.81C75.8226 311.806 76.7507 311.801 77.707 311.797C78.6651 311.791 79.6233 311.785 80.6105 311.78C82.6388 311.77 84.6672 311.764 86.6955 311.76C89.7901 311.75 92.884 311.719 95.9785 311.688C97.9505 311.681 99.9225 311.676 101.894 311.672C102.817 311.66 103.739 311.647 104.689 311.634C109.872 311.652 113.534 312.057 118 315C119.972 318.086 120.004 319.885 119.875 323.562C118.917 327.325 118.046 328.671 115 331C112.243 331.919 110.561 332.135 107.716 332.161C106.854 332.171 105.993 332.18 105.105 332.19C104.177 332.194 103.249 332.199 102.293 332.203C100.856 332.212 100.856 332.212 99.3894 332.22C97.3611 332.23 95.3328 332.236 93.3044 332.24C90.2098 332.25 87.1159 332.281 84.0215 332.312C82.0495 332.319 80.0774 332.324 78.1054 332.328C77.1834 332.34 76.2613 332.353 75.3113 332.366C70.1275 332.348 66.4658 331.943 62 329C60.0281 325.914 59.9959 324.115 60.125 320.438C61.0826 316.675 61.954 315.329 65 313C67.7566 312.081 69.4389 311.865 72.2844 311.839Z" fill="#003366"/>
<path d="M152.284 191.839C153.146 191.829 154.007 191.82 154.894 191.81C155.823 191.806 156.751 191.801 157.707 191.797C158.665 191.791 159.623 191.785 160.61 191.78C162.639 191.77 164.667 191.764 166.696 191.76C169.79 191.75 172.884 191.719 175.978 191.688C177.95 191.681 179.922 191.676 181.894 191.672C182.817 191.66 183.739 191.647 184.689 191.634C189.872 191.652 193.534 192.057 198 195C199.972 198.086 200.004 199.885 199.875 203.562C198.917 207.325 198.046 208.671 195 211C192.243 211.919 190.561 212.135 187.716 212.161C186.854 212.171 185.993 212.18 185.105 212.19C184.177 212.194 183.249 212.199 182.293 212.203C180.856 212.212 180.856 212.212 179.389 212.22C177.361 212.23 175.333 212.236 173.304 212.24C170.21 212.25 167.116 212.281 164.021 212.312C162.049 212.319 160.077 212.324 158.105 212.328C157.183 212.34 156.261 212.353 155.311 212.366C150.127 212.348 146.466 211.943 142 209C140.028 205.914 139.996 204.115 140.125 200.438C141.083 196.675 141.954 195.329 145 193C147.757 192.081 149.439 191.865 152.284 191.839Z" fill="#003366"/>
<path d="M72.2844 191.839C73.1457 191.829 74.007 191.82 74.8945 191.81C75.8226 191.806 76.7507 191.801 77.707 191.797C78.6651 191.791 79.6233 191.785 80.6105 191.78C82.6388 191.77 84.6672 191.764 86.6955 191.76C89.7901 191.75 92.884 191.719 95.9785 191.688C97.9505 191.681 99.9225 191.676 101.894 191.672C102.817 191.66 103.739 191.647 104.689 191.634C109.872 191.652 113.534 192.057 118 195C119.972 198.086 120.004 199.885 119.875 203.562C118.917 207.325 118.046 208.671 115 211C112.243 211.919 110.561 212.135 107.716 212.161C106.854 212.171 105.993 212.18 105.105 212.19C104.177 212.194 103.249 212.199 102.293 212.203C100.856 212.212 100.856 212.212 99.3894 212.22C97.3611 212.23 95.3328 212.236 93.3044 212.24C90.2098 212.25 87.1159 212.281 84.0215 212.312C82.0495 212.319 80.0774 212.324 78.1054 212.328C77.1834 212.34 76.2613 212.353 75.3113 212.366C70.1275 212.348 66.4658 211.943 62 209C60.0281 205.914 59.9959 204.115 60.125 200.438C61.0826 196.675 61.954 195.329 65 193C67.7566 192.081 69.4389 191.865 72.2844 191.839Z" fill="#003366"/>
<path d="M419.891 431.945C424.111 432.267 426.515 432.664 430.063 435.125C432.52 438.772 432.618 440.677 432 445C430.648 448.203 429.714 449.595 426.688 451.312C423.513 452.125 421.262 452.476 418 452C415.031 449.955 413.426 448.302 412.293 444.84C411.86 442.415 411.681 440.445 412 438C414.375 435 414.375 435 417 433C418 432 418 432 419.891 431.945Z" fill="white"/>
<path d="M419.891 311.945C424.111 312.267 426.515 312.664 430.063 315.125C432.52 318.772 432.618 320.677 432 325C430.648 328.203 429.714 329.595 426.688 331.312C423.513 332.125 421.262 332.476 418 332C415.031 329.955 413.426 328.302 412.293 324.84C411.86 322.415 411.681 320.445 412 318C414.375 315 414.375 315 417 313C418 312 418 312 419.891 311.945Z" fill="white"/>
<path d="M419.891 191.945C424.111 192.267 426.515 192.664 430.063 195.125C432.52 198.772 432.618 200.677 432 205C430.648 208.203 429.714 209.595 426.688 211.312C423.513 212.125 421.262 212.476 418 212C415.031 209.955 413.426 208.302 412.293 204.84C411.86 202.415 411.681 200.445 412 198C414.375 195 414.375 195 417 193C418 192 418 192 419.891 191.945Z" fill="white"/>
<path d="M235 433C238.218 435.202 238.889 436.602 239.938 440.375C240.01 444.577 239.397 446.565 237 450C233.914 451.972 232.115 452.004 228.438 451.875C224.528 450.88 223.193 450.375 221 447C220.066 443.934 219.652 441.196 220 438C224.362 432.184 228.074 431.42 235 433Z" fill="#003366"/>
<path d="M235 313C238.218 315.202 238.889 316.602 239.938 320.375C240.01 324.577 239.397 326.565 237 330C233.914 331.972 232.115 332.004 228.438 331.875C224.528 330.88 223.193 330.375 221 327C220.066 323.934 219.652 321.196 220 318C224.362 312.184 228.074 311.42 235 313Z" fill="#003366"/>
<path d="M235 193C238.218 195.202 238.889 196.602 239.938 200.375C240.01 204.577 239.397 206.565 237 210C233.914 211.972 232.115 212.004 228.438 211.875C224.528 210.88 223.193 210.375 221 207C220.066 203.934 219.652 201.196 220 198C224.362 192.184 228.074 191.42 235 193Z" fill="#003366"/>
</g>
<defs>
<clipPath id="clip0_104_95">
<rect width="512" height="512" fill="white"/>
</clipPath>
</defs>
</svg>
